<svg width="742" height="789" viewBox="0 0 742 789" fill="none" xmlns="http://www.w3.org/2000/svg">
<path d="M739.395 129.735L678.764 612.562L364.938 786.508L56.0215 614.875L0.300781 132.047L364.938 2.02148L739.395 129.735ZM138.303 599.562L223.182 598.117L268.799 483.981H472.627L522.574 599.562L603.699 601.006L365.515 93.6182L138.303 599.562ZM442.89 416.368H298.533L366.095 255.717L442.89 416.368Z" fill="#EDEDED"/>
<path d="M739.395 129.735L678.764 612.853L364.938 786.508V483.981H472.627L522.574 599.562L603.699 601.006L365.515 93.6182L364.938 94.9033V2.02148L739.395 129.735ZM442.89 416.368H364.938V258.468L366.095 255.717L442.89 416.368Z" fill="#CCCCCC"/>
</svg>
