<svg width="885" height="975" viewBox="0 0 885 975" fill="none" xmlns="http://www.w3.org/2000/svg">
<g clip-path="url(#clip0_2015_4)">
<path d="M824.854 202.292L512.995 21.5771C494.802 10.9861 474.013 5.39453 452.829 5.39453C431.646 5.39453 410.857 10.9861 392.663 21.5771L80.7534 202.292C62.3104 213.152 47.0726 228.499 36.5314 246.833C25.9903 265.166 20.5072 285.857 20.6189 306.88V668.257C20.5182 689.269 26.0065 709.948 36.5471 728.27C47.0877 746.591 62.3197 761.929 80.7534 772.784L392.612 953.437C410.807 964.022 431.596 969.609 452.778 969.609C473.96 969.609 494.748 964.022 512.944 953.437L824.802 772.784C843.257 761.932 858.507 746.587 869.059 728.253C879.611 709.919 885.104 689.224 884.999 668.195V306.895C885.11 285.872 879.627 265.181 869.086 246.848C858.545 228.515 843.307 213.167 824.864 202.308L824.854 202.292Z" fill="white"/>
<path d="M824.854 202.292L512.995 21.5771C494.802 10.9861 474.013 5.39453 452.829 5.39453C431.646 5.39453 410.857 10.9861 392.663 21.5771L80.7534 202.292C62.3104 213.152 47.0726 228.499 36.5314 246.833C25.9903 265.166 20.5072 285.857 20.6189 306.88V668.257C20.5182 689.269 26.0065 709.948 36.5471 728.27C47.0877 746.591 62.3197 761.929 80.7534 772.784L392.612 953.437C410.807 964.022 431.596 969.609 452.778 969.609C473.96 969.609 494.748 964.022 512.944 953.437L824.802 772.784C843.257 761.932 858.507 746.587 869.059 728.253C879.611 709.919 885.104 689.224 884.999 668.195V306.895C885.11 285.872 879.627 265.181 869.086 246.848C858.545 228.515 843.307 213.167 824.864 202.308L824.854 202.292ZM403.531 934.96L91.6742 754.307C76.5236 745.346 64.0066 732.711 55.3405 717.63C46.6744 702.549 42.154 685.536 42.2191 668.246V306.872C42.148 289.58 46.6657 272.565 55.3324 257.483C63.9991 242.401 76.5194 229.767 91.6742 220.81L403.533 40.0954C418.43 31.4209 435.454 26.8411 452.801 26.8411C470.148 26.8411 487.171 31.4209 502.069 40.0954L813.668 220.81C826.359 228.313 837.22 238.428 845.492 250.45C853.765 262.472 859.25 276.111 861.564 290.415C851.198 268.9 827.907 262.989 800.742 278.226L505.939 456.439C469.158 477.344 442.056 500.931 441.995 544.208V899.057C441.995 924.962 452.671 941.722 469.158 946.658C463.759 947.624 458.285 948.133 452.796 948.181C435.455 948.169 418.437 943.601 403.528 934.956L403.531 934.96Z" fill="#797979"/>
<path d="M743.113 703.184L665.43 748.532C664.412 748.932 663.534 749.611 662.902 750.487C662.271 751.363 661.913 752.399 661.871 753.469V773.4C661.871 775.838 663.558 776.812 665.619 775.655L744.488 728.846C745.434 728.154 746.16 727.213 746.58 726.134C747 725.055 747.097 723.881 746.86 722.75V705.257C746.797 703.002 744.987 702.028 743.113 703.186V703.184Z" fill="#FBFFFC"/>
<path d="M577.77 536.243C580.268 535.025 582.329 536.243 582.392 539.718L582.641 566.169C591.982 562.027 602.404 560.793 612.489 562.635C614.425 563.123 615.237 565.682 614.488 568.729L608.556 591.952C608.106 593.704 607.178 595.305 605.871 596.584C605.412 597.026 604.885 597.396 604.31 597.681C603.604 598.054 602.79 598.183 601.999 598.046C592.165 595.921 581.871 597.535 573.213 602.558C567.009 605.285 561.72 609.666 557.953 615.197C554.186 620.727 552.094 627.183 551.919 633.822C551.919 646.012 558.163 649.364 579.956 649.731C608.743 650.219 621.233 662.469 621.545 690.81C621.206 705.427 617.612 719.796 611.012 732.921C604.413 746.046 594.966 757.611 583.327 766.815L583.827 792.778C583.805 794.365 583.377 795.922 582.581 797.306C581.784 798.69 580.646 799.858 579.268 800.702L563.533 809.539C561.035 810.759 558.974 809.539 558.911 806.126V780.589C545.424 786.074 531.748 787.356 523.007 783.942C521.383 783.331 520.634 780.955 521.321 778.212L527.003 754.747C527.435 752.89 528.412 751.196 529.813 749.871C530.258 749.455 530.763 749.106 531.312 748.835C531.715 748.658 532.151 748.567 532.593 748.567C533.034 748.567 533.471 748.658 533.873 748.835C545.005 751.781 556.878 750.313 566.905 744.752C574.005 741.409 580.034 736.235 584.337 729.789C588.641 723.343 591.056 715.87 591.321 708.181C591.321 695.016 583.891 689.532 566.344 689.408C543.675 689.408 522.633 685.142 522.196 652.838C522.453 638.901 525.868 625.192 532.194 612.695C538.52 600.197 547.602 589.221 558.787 580.554L557.664 553.98C557.659 552.371 558.074 550.787 558.872 549.379C559.67 547.971 560.822 546.785 562.221 545.934L577.77 536.243Z" fill="white"/>
</g>
<defs>
<clipPath id="clip0_2015_4">
<rect width="885" height="975" fill="white"/>
</clipPath>
</defs>
</svg>
