<svg width="2084" height="1823" viewBox="0 0 2084 1823" fill="none" xmlns="http://www.w3.org/2000/svg">
<path d="M1851.89 540.129C1847.73 535.701 1843.3 531.274 1838.87 527.107C1834.44 522.94 1830.27 518.253 1825.84 514.086C1821.42 509.919 1817.25 505.231 1812.82 501.064C1808.39 496.897 1804.22 492.21 1799.79 488.043C1795.37 483.876 1791.2 479.188 1786.77 475.021C1782.34 470.855 1778.17 466.167 1773.74 462C1769.32 457.833 1765.15 453.145 1760.72 448.979C1889.93 575.93 1963.96 748.635 1966.78 929.73C1966.78 1361.26 1528.61 1712.32 989.9 1712.32C688.241 1712.32 418.363 1602.16 238.879 1429.49L251.904 1442.51L264.929 1455.54L277.954 1468.56L290.979 1481.58L304.004 1494.6L317.029 1507.62L330.054 1520.64C509.278 1700.6 785.147 1816.49 1094.1 1816.49C1632.81 1816.49 2070.98 1465.43 2070.98 1035.2C2070.98 851.341 1991.78 677.114 1851.89 540.129Z" fill="black"/>
<path d="M1901.65 929.73C1901.65 1325.84 1493.45 1646.95 989.9 1646.95C486.354 1646.95 78.1504 1325.84 78.1504 929.73C78.1504 684.146 234.45 467.209 474.631 338.557C714.812 209.906 864.339 78.1289 989.9 78.1289C1115.46 78.1289 1222.79 185.686 1505.17 338.557C1745.35 467.209 1901.65 684.146 1901.65 929.73Z" fill="#EEEEEE"/>
<path d="M1901.65 929.73C1901.52 878.844 1894.51 828.209 1880.81 779.202C1809.69 1646.43 751.543 1688.1 335.524 1428.71C522.538 1573.62 753.316 1650.59 989.9 1646.95C1492.67 1646.95 1901.65 1325.32 1901.65 929.73Z" fill="#747474"/>
<path d="M639.007 290.899C755.45 221.104 910.187 90.1086 1062.32 89.8482C1038.92 82.2853 1014.5 78.3335 989.9 78.1289C926.859 78.1289 859.65 110.682 774.988 159.643C745.551 176.831 715.073 195.843 682.771 215.635C622.074 253.137 552.521 295.587 474.371 338.037C226.375 472.157 78.1504 693.261 78.1504 929.73C78.1504 940.147 78.1504 950.565 78.1504 960.721C236.013 403.144 522.824 360.694 639.007 290.899Z" fill="#FFFEFC"/>
<path fill-rule="evenodd" clip-rule="evenodd" d="M914.877 144.017C915.241 205.51 902.327 266.357 877.016 322.404C851.705 378.45 814.593 428.376 768.215 468.771C760.921 475.282 766.652 487.783 776.03 484.137C863.819 450.021 982.346 347.933 932.33 141.934C930.246 130.214 914.877 133.34 914.877 144.017ZM974.01 144.017C1005.88 196.01 1026.14 254.278 1033.37 314.828C1040.61 375.378 1034.67 436.776 1015.95 494.814C1012.82 503.929 1024.03 511.742 1030.28 504.19C1087.33 431.27 1137.08 286.471 988.077 130.214C980.523 123.443 968.8 133.86 974.01 142.975V144.017ZM1045.91 139.59C1095.82 174.918 1137.58 220.537 1168.36 273.369C1199.15 326.201 1218.24 385.019 1224.35 445.854C1224.09 448.046 1224.68 450.256 1226 452.024C1227.32 453.793 1229.27 454.985 1231.45 455.354C1233.63 455.722 1235.87 455.239 1237.7 454.003C1239.53 452.768 1240.81 450.875 1241.28 448.718C1265.25 357.829 1251.7 202.874 1054.5 122.401C1044.08 118.235 1037.31 132.298 1045.91 138.548V139.59ZM565.025 410.436C624.4 392.702 679.374 362.666 726.366 322.282C773.359 281.898 811.317 232.073 837.769 176.05C842.458 166.674 857.306 170.32 854.962 180.738C809.895 389.08 659.066 432.572 565.286 426.842C555.387 427.103 555.647 413.3 565.025 410.436Z" fill="#767676"/>
<path d="M989.9 1712.32C451.186 1712.32 13.0254 1361.26 13.0254 929.73C13.0254 669.301 174.014 426.322 443.632 280.742C521.782 239.073 588.73 197.144 648.385 160.424C681.208 140.111 712.207 121.099 742.165 103.39C833.6 49.2211 911.75 13.0215 989.9 13.0215C1068.05 13.0215 1136.3 44.2729 1221.75 94.7961C1247.8 109.64 1273.85 125.787 1301.72 143.496C1366.58 183.602 1439.78 228.917 1536.17 280.742C1805.79 426.322 1966.78 669.041 1966.78 929.73C1966.78 1361.26 1528.61 1712.32 989.9 1712.32ZM989.9 78.1286C926.859 78.1286 859.65 110.682 774.988 159.643C745.551 176.831 715.073 195.842 682.771 215.635C622.074 253.137 552.521 295.586 474.371 338.036C226.375 472.157 78.1504 693.261 78.1504 929.73C78.1504 1325.32 487.135 1647.21 989.9 1647.21C1492.67 1647.21 1901.65 1325.32 1901.65 929.73C1901.65 693.261 1753.43 472.157 1505.17 338.557C1406.7 286.471 1329.85 237.511 1267.59 198.967C1239.2 181.519 1213.15 165.372 1189.44 151.049C1110.51 104.171 1052.94 78.1286 989.9 78.1286Z" fill="black"/>
<path d="M1173.55 1119.84C1161.85 1167.76 1135.21 1210.72 1097.49 1242.51C1069.16 1269.95 1032.5 1287.18 993.287 1291.47C952.897 1287.86 914.945 1270.59 885.7 1242.51C848.361 1210.57 822.097 1167.63 810.676 1119.84C810.298 1117.01 810.574 1114.12 811.483 1111.41C812.393 1108.69 813.911 1106.22 815.923 1104.19C817.935 1102.15 820.386 1100.6 823.089 1099.66C825.791 1098.72 828.674 1098.41 831.516 1098.75H1152.97C1155.8 1098.45 1158.65 1098.79 1161.32 1099.75C1163.99 1100.72 1166.4 1102.27 1168.38 1104.3C1170.37 1106.33 1171.86 1108.79 1172.76 1111.48C1173.65 1114.17 1173.92 1117.03 1173.55 1119.84Z" fill="#868686"/>
<path d="M885.701 1244.59C914.886 1272.69 952.7 1290.12 993.026 1294.07C1033.26 1290.07 1070.98 1272.64 1100.09 1244.59C1109.41 1235.91 1118.11 1226.6 1126.14 1216.72C1110.09 1198.52 1090.49 1183.8 1068.54 1173.45C1046.59 1163.1 1022.75 1157.36 998.497 1156.56C972.544 1157.18 947.128 1164.09 924.439 1176.7C901.749 1189.31 882.465 1207.25 868.247 1228.96C874.239 1234.43 879.449 1239.64 885.701 1244.59Z" fill="#CECECE"/>
<path d="M889.869 1224.01C902.784 1207.33 919.315 1193.78 938.22 1184.4C957.126 1175.02 977.912 1170.04 999.018 1169.85C1038.03 1171 1075.2 1186.7 1103.22 1213.86C1109.21 1207.35 1114.94 1200.58 1120.41 1193.8C1087.27 1162.25 1043.47 1144.31 997.716 1143.54C973.261 1143.75 949.157 1149.37 927.133 1160C905.109 1170.63 885.711 1185.99 870.331 1205C876.49 1211.69 883.013 1218.04 889.869 1224.01Z" fill="black"/>
<path d="M992.245 1307.09C948.836 1303.29 907.986 1284.93 876.322 1255.01C835.998 1220.91 807.616 1174.83 795.307 1123.49C794.424 1118.92 794.574 1114.21 795.746 1109.7C796.918 1105.2 799.082 1101.01 802.08 1097.45C805.65 1093.14 810.158 1089.7 815.26 1087.4C820.361 1085.1 825.922 1083.99 831.516 1084.16H1152.97C1158.56 1084.05 1164.1 1085.18 1169.19 1087.48C1174.29 1089.77 1178.8 1093.18 1182.41 1097.45C1185.38 1101.02 1187.51 1105.22 1188.63 1109.73C1189.76 1114.23 1189.86 1118.94 1188.92 1123.49C1176.61 1174.83 1148.23 1220.91 1107.91 1255.01C1076.31 1284.88 1035.56 1303.23 992.245 1307.09ZM831.516 1114.37C827.348 1114.37 826.306 1116.2 826.046 1116.72C837.057 1161.24 861.967 1201.1 897.162 1230.53C922.899 1255.87 956.36 1271.91 992.245 1276.1C1028.04 1271.96 1061.46 1256.12 1087.33 1231.05C1122.41 1201.58 1147.23 1161.72 1158.18 1117.24C1157.62 1116.41 1156.83 1115.75 1155.91 1115.33C1154.99 1114.92 1153.97 1114.77 1152.97 1114.89L831.516 1114.37Z" fill="black"/>
<path d="M1386.38 1135.99C1470.54 1135.99 1538.77 1095.88 1538.77 1046.4C1538.77 996.924 1470.54 956.814 1386.38 956.814C1302.22 956.814 1233.99 996.924 1233.99 1046.4C1233.99 1095.88 1302.22 1135.99 1386.38 1135.99Z" fill="#D6D6D6"/>
<path d="M597.848 1135.99C682.012 1135.99 750.24 1095.88 750.24 1046.4C750.24 996.924 682.012 956.814 597.848 956.814C513.684 956.814 445.455 996.924 445.455 1046.4C445.455 1095.88 513.684 1135.99 597.848 1135.99Z" fill="#D6D6D6"/>
<path fill-rule="evenodd" clip-rule="evenodd" d="M669.485 1010.46C697.885 1010.51 725.661 1002.14 749.3 986.406C772.938 970.67 791.376 948.277 802.28 922.061C813.184 895.845 816.064 866.985 810.555 839.132C805.046 811.279 791.396 785.686 771.333 765.592C751.269 745.498 725.694 731.805 697.844 726.247C669.994 720.689 641.12 723.516 614.877 734.369C588.634 745.222 566.202 763.614 550.418 787.218C534.635 810.821 526.21 838.575 526.21 866.967C526.21 904.979 541.297 941.439 568.158 968.342C595.02 995.245 631.462 1010.39 669.485 1010.46ZM1314.74 1010.46C1343.18 1010.67 1371.03 1002.43 1394.77 986.787C1418.51 971.146 1437.07 948.808 1448.09 922.606C1459.12 896.404 1462.11 867.52 1456.69 839.616C1451.27 811.712 1437.68 786.046 1417.65 765.874C1397.62 745.701 1372.04 731.931 1344.17 726.309C1316.3 720.687 1287.39 723.467 1261.1 734.297C1234.81 745.126 1212.33 763.517 1196.51 787.137C1180.7 810.757 1172.25 838.542 1172.25 866.967C1172.18 904.865 1187.14 941.247 1213.85 968.143C1240.55 995.038 1276.84 1010.26 1314.74 1010.46Z" fill="black"/>
<path fill-rule="evenodd" clip-rule="evenodd" d="M625.2 876.081C635.876 876.133 646.327 873.015 655.229 867.123C664.131 861.231 671.083 852.83 675.204 842.984C679.326 833.138 680.431 822.291 678.38 811.816C676.328 801.342 671.213 791.712 663.682 784.147C656.152 776.581 646.544 771.421 636.077 769.32C625.61 767.218 614.754 768.271 604.886 772.343C595.017 776.416 586.58 783.325 580.643 792.196C574.706 801.067 571.537 811.5 571.537 822.173C571.537 836.425 577.182 850.098 587.239 860.2C597.295 870.303 610.944 876.013 625.2 876.081ZM1270.46 876.081C1281.13 876.133 1291.59 873.015 1300.49 867.123C1309.39 861.231 1316.34 852.83 1320.46 842.984C1324.58 833.138 1325.69 822.291 1323.64 811.816C1321.59 801.342 1316.47 791.712 1308.94 784.147C1301.41 776.581 1291.8 771.421 1281.34 769.32C1270.87 767.218 1260.01 768.271 1250.14 772.343C1240.28 776.416 1231.84 783.325 1225.9 792.196C1219.96 801.067 1216.8 811.5 1216.8 822.173C1216.79 836.336 1222.37 849.931 1232.31 860.018C1242.26 870.106 1255.77 875.876 1269.94 876.081H1270.46Z" fill="white"/>
</svg>
