<svg width="873" height="1033" viewBox="0 0 873 1033" fill="none" xmlns="http://www.w3.org/2000/svg">
<path d="M390.374 52.9141C420.621 35.0374 450.126 34.4131 480.568 52.0166C593.62 117.07 706.631 182.215 819.604 247.451C832.348 254.487 842.96 264.829 850.32 277.389C857.422 290.382 860.988 305.012 860.662 319.816H860.975V713.183C861.26 727.674 857.834 741.997 851.022 754.791C843.659 767.733 832.851 778.38 819.8 785.548C706.722 850.627 593.71 915.799 480.763 981.061C450.282 998.664 420.777 998.04 390.53 980.163C345.57 953.621 120.379 824.619 53.2891 785.587C40.2382 778.419 29.43 767.772 22.0664 754.83C15.2551 742.037 11.8291 727.713 12.1143 713.222V319.777C12.1143 287.927 25.54 263.415 53.1719 247.412C120.261 208.497 345.414 79.3388 390.374 52.9141ZM508.922 212.949C432.096 199.517 353.025 215.364 287.307 257.365C221.588 299.366 173.992 364.471 153.906 439.84C133.821 515.208 142.703 595.369 178.803 664.51C180.13 667.008 181.496 669.467 182.706 671.926C209.218 718.708 247.374 757.84 293.469 785.524C339.564 813.209 392.034 828.504 445.783 829.926C499.533 831.348 552.736 818.848 600.23 793.64C647.725 768.431 687.896 731.371 716.844 686.056L583.017 605.142C568.848 626.749 549.524 644.489 526.787 656.762C504.051 669.034 478.617 675.452 452.78 675.438C424.888 675.478 397.497 668.026 373.469 653.861C349.44 639.697 329.656 619.339 316.182 594.915C314.803 592.469 313.502 589.971 312.279 587.421C295.654 553.082 292.197 513.839 302.562 477.122C312.928 440.406 336.397 408.765 368.524 388.193C400.652 367.621 439.206 359.546 476.888 365.496C514.569 371.446 548.76 391.009 572.986 420.48C575.055 422.979 576.89 425.594 578.958 428.287C579.895 429.575 580.831 430.863 581.689 432.19L718.562 353.346C715.231 347.985 711.744 342.781 708.102 337.732C706.189 335.039 704.199 332.463 702.325 329.926C654.752 268.118 585.748 226.381 508.922 212.949Z" fill="#A9A9A9"/>
<path d="M819.607 247.451C832.339 254.489 842.937 264.832 850.284 277.389C857.416 290.372 860.997 305.007 860.665 319.816C860.743 450.883 860.743 712.898 860.743 713.222C861.037 727.714 857.611 742.04 850.791 754.83C849.117 757.876 847.225 760.798 845.132 763.573L436.391 516.5L573.049 420.555C575.093 423.031 576.913 425.62 578.961 428.287C579.898 429.575 580.834 430.863 581.692 432.19L718.563 353.346C715.233 347.985 711.747 342.781 708.104 337.732C706.192 335.039 704.201 332.464 702.328 329.927C702.305 329.897 702.283 329.867 702.26 329.838L819.607 247.451Z" fill="#D6D6D6"/>
<path d="M390.416 52.8369C420.584 34.9605 450.129 34.3362 480.57 51.9395C593.518 117.201 706.53 182.373 819.607 247.452C832.339 254.49 842.936 264.833 850.283 277.39L718.547 353.32C715.221 347.969 711.741 342.773 708.104 337.733C706.192 335.04 704.201 332.464 702.328 329.927C654.755 268.118 585.75 226.382 508.924 212.95C432.098 199.518 353.028 215.366 287.31 257.366C221.591 299.367 173.995 364.472 153.909 439.841C133.83 515.185 142.7 595.317 178.77 664.442L21.9521 754.831C15.1711 742.043 11.7712 727.733 12.0771 713.262V319.778C12.0772 287.928 25.5422 263.416 53.1348 247.413C120.263 208.498 345.417 79.3398 390.416 52.8369ZM368.527 388.194C400.654 367.622 439.209 359.547 476.891 365.497C514.572 371.448 548.763 391.01 572.989 420.481C575.058 422.979 576.892 425.595 578.96 428.288C579.897 429.576 580.834 430.864 581.692 432.191L615.95 412.457L312.306 587.474C312.297 587.456 312.289 587.439 312.281 587.422C295.656 553.083 292.2 513.84 302.565 477.123C312.931 440.406 336.4 408.766 368.527 388.194Z" fill="#EFEFEF"/>
</svg>
