<svg width="885" height="886" viewBox="0 0 885 886" fill="none" xmlns="http://www.w3.org/2000/svg">
<path d="M782 445.191C665.617 447.481 689.859 521.35 607.837 540.031C524.515 559.009 511.361 336 428.06 336C344.748 336 326.293 552.629 221.976 701.348L219 705.558L442.655 835L782 638.585V445.191Z" fill="#BCBCBC"/>
<path d="M782 438.702C742.937 388.599 716.441 331 659.438 331C558.562 331 585.105 495.462 473.618 495.462C362.12 495.462 350.398 318.56 224.09 484.852C183.843 537.838 151.447 596.918 126 652.823L441.764 835L782 638.704V438.702Z" fill="#F0F0F0"/>
<path opacity="0.8" d="M103 508.042C141.197 402.488 157.682 317 230.604 317C341.847 317 368.327 628.863 463.694 597.136C559.045 565.424 548.447 396.276 696.783 396.276C725.017 396.276 753.844 413.537 782 441.456V639.428L442.508 835L103.005 639.428L103 508.042Z" fill="#D7D7D7"/>
<path d="M442 860L81 651.755V235.25L442 27L803 235.25V651.75L442 860ZM123.413 627.286L442 811.072L760.587 627.286V259.719L442 75.9335L123.413 259.719V627.286Z" fill="#E7E9ED"/>
</svg>
