<svg width="863" height="970" viewBox="0 0 863 970" fill="none" xmlns="http://www.w3.org/2000/svg">
<path d="M384.096 14.8281C414.779 -3.25652 444.752 -3.90683 475.665 13.9219C590.329 80.0605 705.142 145.93 819.844 212.001C833.739 220.04 844.098 230.207 851.016 242.338C858.058 254.674 861.54 269.047 861.547 285.313C861.591 418.19 861.591 683.866 861.591 683.866C861.584 699.779 858.243 713.873 851.521 726.023C844.601 738.511 834.096 748.964 819.881 757.181C705.163 823.252 590.343 889.119 475.675 955.261C444.752 973.096 414.779 972.449 384.082 954.354C338.437 927.45 109.83 796.634 41.7139 757.222C27.498 749.001 16.9941 738.554 10.0732 726.057C3.34122 713.906 0.00679578 699.812 0 683.903C0.0438242 551.027 0.00012126 418.156 0.0439453 285.283C0.0506875 253.014 13.7001 228.186 41.751 211.964C109.864 172.551 338.441 41.7261 384.096 14.8281ZM430.796 198.76C272.773 198.76 144.674 326.733 144.674 484.591C144.674 536.38 158.465 584.946 182.568 626.837C231.941 712.646 324.617 770.427 430.796 770.427C537.171 770.427 629.99 712.413 679.292 626.352L554.946 554.381C530.513 597.669 484.082 626.925 430.796 626.925C377.836 626.925 331.669 598.036 307.11 555.205C294.773 533.714 288.294 509.365 288.319 484.591C288.32 405.985 352.111 342.262 430.796 342.262C483.415 342.262 529.34 370.789 554.02 413.182L678.551 341.544C629.053 256.186 536.641 198.76 430.796 198.76ZM653.352 435.17V467.911H620.578V500.648H653.352V533.396H686.125V500.648H718.896V467.911H686.125V435.17H653.352ZM772.931 435.17V467.911H740.161V500.648H772.931V533.396H805.712V500.648H838.485V467.911H805.712V435.17H772.931Z" fill="#EFEFEF"/>
<path d="M851.522 726.022C844.602 738.51 834.097 748.963 819.881 757.181C705.163 823.252 590.343 889.118 475.676 955.26C444.753 973.095 414.78 972.449 384.083 954.354C338.438 927.45 109.831 796.634 41.7148 757.222C27.499 749.001 16.9951 738.554 10.0742 726.057L182.568 626.836L182.569 626.837C231.942 712.646 324.618 770.427 430.797 770.427C537.172 770.427 629.991 712.414 679.293 626.352L619.808 591.922L851.522 726.022ZM554.945 554.384C530.511 597.671 484.082 626.925 430.797 626.925C377.837 626.925 331.67 598.036 307.111 555.205C307.111 555.204 307.109 555.203 307.108 555.201L432.114 483.298L554.945 554.384Z" fill="#A9A9A9"/>
<path d="M307.109 555.205C331.668 598.036 377.835 626.924 430.795 626.924C484.082 626.924 530.512 597.669 554.945 554.38L432.113 483.298L307.109 555.205Z" fill="#A9A9A9"/>
<path d="M851.016 242.338C858.058 254.674 861.54 269.047 861.547 285.313C861.591 418.19 861.591 683.866 861.591 683.866C861.584 699.779 858.243 713.873 851.521 726.023L432.113 483.298L851.016 242.338ZM653.352 435.17V467.911H620.578V500.648H653.352V533.396H686.125V500.648H718.896V467.911H686.125V435.17H653.352ZM772.931 435.17V467.911H740.161V500.648H772.931V533.396H805.712V500.648H838.485V467.911H805.712V435.17H772.931Z" fill="#D5D5D5"/>
</svg>
