<svg width="1018" height="1131" viewBox="0 0 1018 1131" fill="none" xmlns="http://www.w3.org/2000/svg">
<g clip-path="url(#clip0_11_126)">
<path d="M6.90491e-08 355.342V775.188C6.90491e-08 827.127 27.7065 875.166 72.7181 901.115L436.306 1111.06C458.413 1123.84 483.493 1130.56 509.024 1130.56C534.555 1130.56 559.635 1123.84 581.742 1111.06L945.328 901.115C967.435 888.354 985.794 869.998 998.558 847.893C1011.32 825.788 1018.04 800.711 1018.04 775.185V355.344C1018.04 303.386 990.339 255.354 945.328 229.395L581.74 19.499C559.634 6.72532 534.554 0 509.023 0C483.492 0 458.412 6.72532 436.306 19.499L72.7181 229.395C50.6085 242.159 32.2485 260.518 19.4837 282.627C6.71894 304.735 -0.000786523 329.815 6.90491e-08 355.344V355.342Z" fill="url(#paint0_linear_11_126)"/>
<g style="mix-blend-mode:screen" filter="url(#filter0_ddddd_11_126)">
<path d="M254.523 492.603V638.053C254.514 642.831 255.449 647.564 257.274 651.98C259.099 656.396 261.777 660.409 265.156 663.787C268.534 667.166 272.547 669.845 276.963 671.669C281.379 673.494 286.112 674.429 290.89 674.42C295.667 674.423 300.397 673.484 304.811 671.658C309.224 669.831 313.235 667.152 316.612 663.775C319.99 660.397 322.669 656.387 324.495 651.973C326.322 647.56 327.261 642.829 327.258 638.053C327.258 628.41 331.088 619.163 337.907 612.344C344.725 605.526 353.972 601.696 363.615 601.696C373.257 601.696 382.505 605.526 389.323 612.344C396.141 619.163 399.972 628.41 399.972 638.053C399.972 666.983 388.479 694.728 368.023 715.185C347.566 735.642 319.82 747.134 290.89 747.134C261.96 747.134 234.215 735.642 213.758 715.185C193.301 694.728 181.809 666.983 181.809 638.053V492.625C181.809 463.694 193.301 435.949 213.758 415.492C234.215 395.036 261.96 383.543 290.89 383.543C319.82 383.543 347.566 395.036 368.023 415.492C388.479 435.949 399.972 463.694 399.972 492.625C399.972 502.267 396.141 511.515 389.323 518.333C382.505 525.151 373.257 528.982 363.615 528.982C353.972 528.982 344.725 525.151 337.907 518.333C331.088 511.515 327.258 502.267 327.258 492.625C327.258 482.982 323.427 473.735 316.609 466.916C309.791 460.098 300.543 456.268 290.901 456.268C281.258 456.268 272.011 460.098 265.193 466.916C258.374 473.735 254.544 482.982 254.544 492.625L254.523 492.603ZM836.277 638.053C836.283 642.83 835.346 647.562 833.52 651.977C831.695 656.391 829.016 660.403 825.638 663.781C822.26 667.159 818.248 669.838 813.834 671.663C809.419 673.489 804.687 674.426 799.91 674.42H763.542V710.767C763.542 720.421 759.723 729.672 752.891 736.483C749.52 739.867 745.514 742.552 741.103 744.385C736.691 746.217 731.962 747.16 727.185 747.16C722.408 747.16 717.679 746.217 713.268 744.385C708.856 742.552 704.851 739.867 701.48 736.483C694.669 729.656 690.84 720.41 690.828 710.767V674.42H618.114V710.767C618.125 715.546 617.192 720.28 615.369 724.697C613.545 729.115 610.866 733.128 607.487 736.507C604.108 739.887 600.094 742.565 595.677 744.389C591.26 746.213 586.525 747.146 581.746 747.134C576.969 747.143 572.237 746.208 567.822 744.383C563.407 742.558 559.396 739.879 556.019 736.5C552.642 733.121 549.966 729.108 548.144 724.692C546.321 720.276 545.389 715.544 545.4 710.767V674.42H509.011C499.369 674.42 490.121 670.59 483.303 663.772C476.485 656.953 472.654 647.706 472.654 638.063C472.654 628.421 476.485 619.173 483.303 612.355C490.121 605.537 499.369 601.706 509.011 601.706H545.379V528.992H509.011C499.369 528.992 490.121 525.162 483.303 518.344C476.485 511.525 472.654 502.278 472.654 492.635C472.654 482.993 476.485 473.745 483.303 466.927C490.121 460.109 499.369 456.278 509.011 456.278H545.379V419.911C545.379 410.268 549.209 401.021 556.027 394.202C562.846 387.384 572.093 383.554 581.736 383.554C591.378 383.554 600.626 387.384 607.444 394.202C614.262 401.021 618.093 410.268 618.093 419.911V456.257H690.807V419.911C690.807 410.268 694.637 401.021 701.456 394.202C708.274 387.384 717.521 383.554 727.164 383.554C736.806 383.554 746.054 387.384 752.872 394.202C759.69 401.021 763.521 410.268 763.521 419.911V456.257H799.889C809.522 456.257 818.773 460.076 825.584 466.908C828.968 470.279 831.653 474.286 833.485 478.697C835.317 483.108 836.26 487.838 836.26 492.614C836.26 497.391 835.317 502.12 833.485 506.531C831.653 510.943 828.968 514.949 825.584 518.32C822.212 521.7 818.207 524.382 813.798 526.214C809.389 528.045 804.663 528.989 799.889 528.992H763.521V601.706H799.889C809.523 601.729 818.757 605.565 825.572 612.375C832.387 619.186 836.249 628.418 836.277 638.053ZM690.828 528.992H618.114V601.706H690.828V528.992Z" fill="white"/>
</g>
</g>
<defs>
<filter id="filter0_ddddd_11_126" x="161.875" y="370.261" width="694.335" height="446.666" filterUnits="userSpaceOnUse" color-interpolation-filters="sRGB">
<feFlood flood-opacity="0" result="BackgroundImageFix"/>
<feColorMatrix in="SourceAlpha" type="matrix" values="0 0 0 0 0 0 0 0 0 0 0 0 0 0 0 0 0 0 127 0" result="hardAlpha"/>
<feOffset/>
<feColorMatrix type="matrix" values="0 0 0 0 0 0 0 0 0 0 0 0 0 0 0 0 0 0 0.1 0"/>
<feBlend mode="normal" in2="BackgroundImageFix" result="effect1_dropShadow_11_126"/>
<feColorMatrix in="SourceAlpha" type="matrix" values="0 0 0 0 0 0 0 0 0 0 0 0 0 0 0 0 0 0 127 0" result="hardAlpha"/>
<feOffset dy="3.3222"/>
<feGaussianBlur stdDeviation="8.30219"/>
<feColorMatrix type="matrix" values="0 0 0 0 0 0 0 0 0 0 0 0 0 0 0 0 0 0 0.1 0"/>
<feBlend mode="normal" in2="effect1_dropShadow_11_126" result="effect2_dropShadow_11_126"/>
<feColorMatrix in="SourceAlpha" type="matrix" values="0 0 0 0 0 0 0 0 0 0 0 0 0 0 0 0 0 0 127 0" result="hardAlpha"/>
<feOffset dy="13.2888"/>
<feGaussianBlur stdDeviation="6.64441"/>
<feColorMatrix type="matrix" values="0 0 0 0 0 0 0 0 0 0 0 0 0 0 0 0 0 0 0.09 0"/>
<feBlend mode="normal" in2="effect2_dropShadow_11_126" result="effect3_dropShadow_11_126"/>
<feColorMatrix in="SourceAlpha" type="matrix" values="0 0 0 0 0 0 0 0 0 0 0 0 0 0 0 0 0 0 127 0" result="hardAlpha"/>
<feOffset dy="29.8998"/>
<feGaussianBlur stdDeviation="8.30551"/>
<feColorMatrix type="matrix" values="0 0 0 0 0 0 0 0 0 0 0 0 0 0 0 0 0 0 0.05 0"/>
<feBlend mode="normal" in2="effect3_dropShadow_11_126" result="effect4_dropShadow_11_126"/>
<feColorMatrix in="SourceAlpha" type="matrix" values="0 0 0 0 0 0 0 0 0 0 0 0 0 0 0 0 0 0 127 0" result="hardAlpha"/>
<feOffset dy="49.8331"/>
<feGaussianBlur stdDeviation="9.96661"/>
<feColorMatrix type="matrix" values="0 0 0 0 0 0 0 0 0 0 0 0 0 0 0 0 0 0 0.01 0"/>
<feBlend mode="normal" in2="effect4_dropShadow_11_126" result="effect5_dropShadow_11_126"/>
<feBlend mode="normal" in="SourceGraphic" in2="effect5_dropShadow_11_126" result="shape"/>
</filter>
<linearGradient id="paint0_linear_11_126" x1="99.9799" y1="247.136" x2="590.835" y2="1101.58" gradientUnits="userSpaceOnUse">
<stop stop-color="#927BE5"/>
<stop offset="1" stop-color="#512BD4"/>
</linearGradient>
<clipPath id="clip0_11_126">
<rect width="1018" height="1131" fill="white"/>
</clipPath>
</defs>
</svg>
