<svg width="885" height="885" viewBox="0 0 885 885" fill="none" xmlns="http://www.w3.org/2000/svg">
<path d="M714.68 42C748.712 42 781.351 55.5193 805.416 79.584C829.481 103.649 843 136.288 843 170.32V715.68C843 749.712 829.481 782.351 805.416 806.416C781.351 830.481 748.712 844 714.68 844H169.32C135.288 844 102.649 830.481 78.584 806.416C54.5193 782.351 41 749.712 41 715.68V42H714.68ZM330.505 479.459C304.528 479.459 283.54 486.525 267.532 500.504C251.773 514.643 243.89 535.214 243.89 562.361V697.33C243.89 724.646 251.292 745.298 266.249 759.028C281.206 772.847 301.384 779.76 326.808 779.76C342.01 780.076 357.075 776.83 370.798 770.28C383.647 764.036 394.322 754.071 401.435 741.681C408.917 728.985 412.614 713.081 412.614 694.042V684.883H353.346V693.633C353.864 702.221 351.701 710.757 347.154 718.062C342.968 723.844 336.937 726.739 328.901 726.739C311.771 726.499 303.157 714.044 303.157 689.543V572.242C302.584 562.152 304.432 552.071 308.547 542.841C312.413 536.168 319.246 532.88 328.894 532.88C332.236 532.793 335.553 533.498 338.571 534.937C341.59 536.375 344.226 538.507 346.265 541.157C350.932 546.458 353.346 554.575 353.346 565.578V575.939H412.614V565.257C412.614 536.738 405.139 515.364 390.254 500.984C375.537 486.685 355.679 479.459 330.505 479.459ZM517.163 479.05C491.996 479.05 472.291 486.596 457.814 501.778C443.739 516.968 436.666 536.73 436.666 561.078C436.666 582.844 440.684 599.872 448.729 612.006C457.013 624.22 470.439 634.662 488.94 643.5L509.688 653.469C518.867 657.047 526.998 662.877 533.331 670.423C537.999 676.767 540.324 684.803 540.324 694.443C540.324 706.569 538.56 715.415 534.935 720.949C531.398 726.499 525.126 729.306 516.288 729.306C498.909 729.305 490.063 716.698 489.742 691.548H433.771C434.412 719.987 441.566 741.761 455.32 757.023C469.235 772.205 489.093 779.76 515.077 779.76C541.054 779.76 561.401 772.285 576.037 757.424C590.674 742.563 597.988 721.278 597.988 693.561C597.988 670.423 593.409 651.945 584.322 638.127C575.228 624.228 560.431 612.735 539.924 603.336L520.058 594.578C512.256 591.607 505.279 586.811 499.711 580.591C495.853 574.969 493.921 567.582 493.921 558.095C493.921 539.376 501.804 529.986 517.571 529.985C526.417 529.985 532.368 533.041 535.424 539.136C539.289 547.428 541.134 556.508 540.813 565.65H594.692C594.131 537.693 587.137 516.327 573.463 501.378C560.27 486.517 541.455 479.05 517.163 479.05ZM697.949 479.05C672.783 479.05 653.078 486.597 638.602 501.778C624.535 516.968 617.453 536.73 617.453 561.078C617.453 582.844 621.471 599.872 629.515 612.006C637.799 624.22 651.233 634.662 669.728 643.5L690.475 653.469C699.653 657.047 707.785 662.877 714.118 670.423C718.786 676.767 721.199 684.803 721.199 694.443C721.199 706.569 719.346 715.415 715.81 720.949C712.193 726.499 705.921 729.306 697.067 729.306C679.696 729.306 670.858 716.699 670.537 691.548H614.558C615.199 719.987 622.361 741.761 636.115 757.023C650.022 772.205 669.888 779.76 695.864 779.76H695.872C721.841 779.76 742.188 772.285 756.824 757.424C771.541 742.563 778.783 721.278 778.783 693.561C778.783 670.423 774.276 651.945 765.109 638.127C756.023 624.228 741.226 612.735 720.719 603.336L700.853 594.578C693.051 591.607 686.074 586.811 680.506 580.591C676.64 574.969 674.716 567.582 674.716 558.095C674.716 539.376 682.599 529.985 698.358 529.985C707.204 529.985 713.163 533.041 716.211 539.136C720.077 547.428 721.921 556.508 721.601 565.65H775.487C774.918 537.693 767.844 516.327 754.33 501.378C741.065 486.517 722.25 479.05 697.949 479.05Z" fill="#F3F3F3"/>
</svg>
