<svg width="885" height="885" viewBox="0 0 885 885" fill="none" xmlns="http://www.w3.org/2000/svg">
<path d="M730.229 31C798.586 31 854 86.4144 854 154.771V730.229C854 798.586 798.586 854 730.229 854H154.771C86.4144 854 31 798.586 31 730.229V154.771C31 86.4144 86.4144 31 154.771 31H730.229ZM177.685 516.531C171.865 516.531 166.918 518.52 162.845 522.498C158.772 526.476 156.735 531.249 156.735 536.818C156.735 542.287 158.772 547.01 162.845 550.988C166.792 554.744 171.557 556.681 177.142 556.798L177.685 556.806C183.601 556.807 188.596 554.867 192.669 550.988C196.84 547.01 198.925 542.287 198.925 536.818C198.925 531.249 196.84 526.476 192.669 522.498C188.595 518.52 183.6 516.531 177.685 516.531ZM233.409 339.625V553.524H266.871V413.31C266.871 398.296 266.482 388.502 265.705 383.926H266.58C268.254 388.248 270.349 392.395 272.834 396.308L372.488 553.524H410.313V339.625H376.998V477.45C376.998 490.975 377.483 500.571 378.453 506.239H377.873C376.707 503.854 374.088 499.479 370.016 493.113L273.707 339.625H233.409ZM456.146 339.625V553.524H573.257V523.541H490.771V460.297H562.493V430.315H490.771V369.756H568.602V339.625H456.146ZM585.338 339.625V369.756H645.131V553.524H679.755V369.756H739.695L739.693 339.625H585.338Z" fill="white"/>
</svg>
