<svg width="2712" height="2712" viewBox="0 0 2712 2712" fill="none" xmlns="http://www.w3.org/2000/svg">
<g clip-path="url(#clip0_1_331)">
<path d="M2712 2712H0V0H2712V2712ZM1356 1299.5C1356 922.362 1020.11 623.703 631.161 686.361C328.378 735.121 113 1008.92 113 1315.55V1477.02C113 1847.27 382.9 2142.93 727.042 2147C1014.74 2150.39 1257.52 1958.06 1331.99 1695.06H1273.91C1238.88 1695.06 1207.12 1715.11 1191.92 1746.64C1093.67 1949.76 864.845 2077.84 614.042 2020.21C382.844 1967.05 226 1750.43 226 1513.24V1469H1356V1299.5ZM1878.23 1412.5L1338.88 2122.14H1405.55C1453.01 2122.14 1497.7 2099.99 1526.4 2062.19L1949.31 1505.84L2372.21 2062.19C2400.91 2099.94 2445.6 2122.14 2493.06 2122.14H2559.73L2020.21 1412.5L2535.55 734.5H2468.88C2421.42 734.5 2376.73 756.648 2348.03 794.446L1949.25 1319.11L1550.42 794.39C1521.71 756.648 1477.02 734.5 1429.56 734.5H1362.89L1878.23 1412.5ZM617.206 804.107C949.087 729.979 1243 980.388 1243 1299.5V1356H226V1339.61C226 1073.61 384.426 856.144 617.206 804.107Z" fill="white"/>
</g>
<defs>
<clipPath id="clip0_1_331">
<rect width="2712" height="2712" fill="white"/>
</clipPath>
</defs>
</svg>
