<svg width="753" height="799" viewBox="0 0 753 799" fill="none" xmlns="http://www.w3.org/2000/svg">
<path d="M367 400C367 326.547 426.322 267 499.5 267C572.676 267 632 326.547 632 400C632 473.454 572.676 533 499.5 533C426.322 533 367 473.454 367 400Z" fill="#E5E5E5"/>
<path d="M102 665.5C102 592.324 161.322 533 234.5 533H367V665.5C367 738.678 307.678 798 234.5 798C161.322 798 102 738.678 102 665.5Z" fill="#E0E2E1"/>
<path d="M367 2V267H499.5C572.678 267 632 207.678 632 134.499C632 61.3202 572.678 2 499.5 2H367Z" fill="#FBFBFB"/>
<path d="M102 134.5C102 207.678 161.322 267 234.5 267H367V2H234.5C161.322 2 102 61.3235 102 134.5Z" fill="#E8E7E7"/>
<path d="M102 400C102 473.454 161.322 533 234.5 533H367V267H234.5C161.322 267 102 326.547 102 400Z" fill="#B2B2B2"/>
</svg>
