<svg width="885" height="885" viewBox="0 0 885 885" fill="none" xmlns="http://www.w3.org/2000/svg">
<g clip-path="url(#clip0_2003_45)">
<path d="M868.309 403.069L481.91 16.6907C459.671 -5.56225 423.58 -5.56225 401.313 16.6907L321.075 96.9284L422.861 198.714C446.514 190.721 473.637 196.083 492.492 214.938C511.437 233.913 516.761 261.269 508.574 284.998L606.668 383.094C630.4 374.919 657.783 380.208 676.738 399.194C703.229 425.675 703.229 468.594 676.738 495.092C650.24 521.594 607.321 521.594 580.809 495.092C560.883 475.145 555.96 445.881 566.047 421.333L474.567 329.853L474.557 570.59C481.189 573.869 487.245 578.2 492.492 583.416C518.983 609.896 518.983 652.819 492.492 679.338C465.994 705.826 423.054 705.826 396.594 679.338C370.103 652.819 370.103 609.9 396.594 583.419C402.943 577.067 410.487 572.037 418.792 568.62V325.639C410.475 322.244 402.926 317.211 396.594 310.839C376.523 290.795 371.697 261.345 381.981 236.7L281.644 136.352L16.6975 401.282C-5.56582 423.556 -5.56582 459.65 16.6975 481.907L403.104 868.292C425.35 890.549 461.434 890.549 483.708 868.292L868.306 483.701C890.562 461.438 890.566 425.322 868.309 403.069Z" fill="white"/>
</g>
<defs>
<clipPath id="clip0_2003_45">
<rect width="885" height="885" fill="white"/>
</clipPath>
</defs>
</svg>
