<svg width="2500" height="2500" viewBox="0 0 2500 2500" fill="none" xmlns="http://www.w3.org/2000/svg">
<g clip-path="url(#clip0_37_2)">
<ellipse cx="1250" cy="1249.53" rx="1250" ry="1250.55" fill="#101010"/>
<path d="M1250.7 1.17664C561.255 1.17664 2.1911 560.143 2.1911 1249.68C2.1911 1801.32 359.926 2269.31 855.999 2434.4C918.393 2445.95 941.305 2407.31 941.305 2374.33C941.305 2344.57 940.14 2246.21 939.611 2141.88C592.266 2217.41 518.974 1994.58 518.974 1994.58C462.182 1850.26 380.351 1811.9 380.351 1811.9C267.08 1734.41 388.89 1735.99 388.89 1735.99C514.264 1744.81 580.281 1864.66 580.281 1864.66C691.633 2055.53 872.351 2000.34 943.597 1968.45C954.799 1887.75 987.16 1832.68 1022.86 1801.5C745.557 1769.92 454.035 1662.87 454.035 1184.48C454.035 1048.18 502.808 936.795 582.68 849.364C569.715 817.913 526.984 690.932 594.773 518.958C594.773 518.958 699.614 485.402 938.201 646.938C1037.78 619.266 1144.59 605.401 1250.7 604.931C1356.8 605.401 1463.69 619.266 1563.47 646.938C1801.77 485.402 1906.47 518.958 1906.47 518.958C1974.42 690.932 1931.67 817.913 1918.71 849.364C1998.75 936.795 2047.19 1048.17 2047.19 1184.48C2047.19 1664 1755.12 1769.6 1477.11 1800.5C1521.89 1839.25 1561.79 1915.23 1561.79 2031.71C1561.79 2198.76 1560.34 2333.21 1560.34 2374.33C1560.34 2407.56 1582.82 2446.49 1646.11 2434.23C2141.91 2268.95 2499.19 1801.13 2499.19 1249.68C2499.19 560.143 1940.21 1.17664 1250.7 1.17664Z" fill="white"/>
<path d="M469.8 1779.7C467.058 1785.9 457.286 1787.76 448.405 1783.51C439.347 1779.44 434.255 1770.98 437.193 1764.75C439.886 1758.37 449.658 1756.59 458.696 1760.87C467.773 1764.94 472.943 1773.48 469.8 1779.7ZM531.214 1834.5C525.261 1840.02 513.618 1837.46 505.716 1828.73C497.55 1820.03 496.022 1808.39 502.064 1802.78C508.203 1797.27 519.493 1799.85 527.679 1808.56C535.846 1817.36 537.432 1828.93 531.204 1834.51M573.348 1904.61C565.691 1909.93 553.177 1904.94 545.451 1893.84C537.804 1882.74 537.804 1869.43 545.618 1864.09C553.373 1858.75 565.691 1863.55 573.525 1874.57C581.162 1885.86 581.162 1899.17 573.338 1904.62M644.594 1985.81C637.749 1993.35 623.179 1991.34 612.506 1981.03C601.598 1970.97 598.552 1956.68 605.416 1949.13C612.339 1941.57 626.998 1943.7 637.749 1953.91C648.589 1963.96 651.889 1978.35 644.594 1985.81ZM736.676 2013.23C733.67 2023 719.628 2027.45 705.489 2023.3C691.369 2019.02 682.126 2007.56 684.975 1997.68C687.913 1987.84 702.013 1983.21 716.26 1987.65C730.36 1991.91 739.613 2003.28 736.676 2013.23ZM841.488 2024.85C841.84 2035.15 829.845 2043.69 815.001 2043.88C800.068 2044.2 787.995 2035.87 787.838 2025.74C787.838 2015.34 799.559 2006.88 814.482 2006.64C829.326 2006.35 841.488 2014.62 841.488 2024.85ZM944.439 2020.91C946.221 2030.95 935.9 2041.27 921.164 2044.02C906.672 2046.66 893.257 2040.46 891.406 2030.5C889.605 2020.2 900.121 2009.89 914.584 2007.22C929.35 2004.65 942.559 2010.69 944.439 2020.91Z" fill="white"/>
</g>
<defs>
<clipPath id="clip0_37_2">
<rect width="2500" height="2500" fill="white"/>
</clipPath>
</defs>
</svg>
