<svg width="808" height="926" viewBox="0 0 808 926" fill="none" xmlns="http://www.w3.org/2000/svg">
<path d="M808 3.20996L736.459 829.001L407.05 924.453L67.6572 829.001L0 1.54688L808 3.20996ZM174.131 479.928H527.39L513.536 612.008L400.403 642.525L285.608 609.229L279.509 530.426H178.014L191.88 691.366L400.396 749.636L610.574 691.366L638.854 377.258H267.858L257.322 271.262H648.29L657.712 170.254H145.851L174.131 479.928Z" fill="#DDDDDD"/>
<path d="M739.787 81.46L680.451 765.176L407.047 844.54V747.791L610.572 691.366L638.853 377.258H407.047V271.262H648.288L657.71 170.254H407.047V80.3516L739.787 81.46ZM527.388 479.928L513.534 612.008L407.047 640.732V479.928H527.388Z" fill="white"/>
</svg>
