<svg width="885" height="885" viewBox="0 0 885 885" fill="none" xmlns="http://www.w3.org/2000/svg">
<path d="M338.997 656.332C338.997 656.332 309.075 673.725 360.293 679.611C422.345 686.686 454.056 685.673 522.438 672.735C522.438 672.735 540.417 684.003 565.522 693.764C412.233 759.434 218.595 689.959 338.997 656.332ZM320.266 570.634C320.266 570.634 286.704 595.468 337.961 600.767C404.246 607.602 456.591 608.162 547.171 590.727C547.171 590.727 559.699 603.423 579.399 610.367C394.061 664.54 187.629 614.639 320.266 570.634Z" fill="#DCDEE0"/>
<path d="M478.175 425.266C515.947 468.733 468.252 507.849 468.252 507.849C468.252 507.849 564.157 458.36 520.112 396.386C478.976 338.596 447.427 309.878 618.21 210.873C618.21 210.873 350.139 277.798 478.175 425.266Z" fill="#FFFDFB"/>
<path d="M680.915 719.717C680.915 719.717 703.059 737.954 656.526 752.064C568.046 778.858 288.258 786.949 210.533 753.131C182.594 740.984 234.99 724.123 251.47 720.583C268.658 716.857 278.482 717.553 278.482 717.553C247.41 695.672 77.645 760.515 192.25 779.083C504.793 829.748 761.984 756.27 680.915 719.717ZM353.384 481.843C353.384 481.843 211.068 515.634 302.988 527.901C341.798 533.095 419.167 531.922 491.235 525.884C550.133 520.921 609.273 510.36 609.273 510.36C609.273 510.36 588.505 519.251 573.48 529.506C428.959 567.5 149.77 549.825 230.145 510.961C298.118 478.118 353.384 481.843 353.384 481.843ZM608.686 624.488C755.601 548.178 687.673 474.845 640.261 484.726C628.64 487.142 623.459 489.236 623.459 489.236C623.459 489.236 627.773 482.483 636.013 479.559C729.807 446.596 801.943 576.776 605.734 628.334C605.734 628.336 608.008 626.306 608.686 624.488Z" fill="#DCDEE0"/>
<path d="M520.111 51.0023C520.111 51.0023 601.475 132.362 442.942 257.463C315.817 357.819 413.953 415.038 442.89 480.414C368.684 413.49 314.226 354.576 350.762 299.745C404.384 219.254 552.938 180.233 520.111 51.0023Z" fill="#FFFDFB"/>
<path d="M367.819 831.271C508.838 840.295 725.386 826.264 730.515 759.565C730.515 759.565 720.657 784.853 613.971 804.932C493.609 827.572 345.161 824.93 257.113 810.419C257.116 810.419 275.135 825.331 367.819 831.271Z" fill="#DCDEE0"/>
</svg>
