<svg width="872" height="874" viewBox="0 0 872 874" fill="none" xmlns="http://www.w3.org/2000/svg">
<path d="M834 835.826H38V38H834V835.826ZM396.275 404.683C396.275 469.146 395.974 533.154 395.974 597.617C395.974 638.645 398.092 676.261 391.434 687.789C380.538 710.464 352.314 707.659 339.451 703.26C326.361 696.813 319.702 687.637 311.984 674.669C309.866 670.954 308.278 668.072 307.747 667.844C287.545 680.205 267.417 692.642 247.214 705.005C257.278 725.709 272.109 743.683 291.101 755.361C319.475 772.425 357.61 777.658 397.486 768.481C423.44 760.898 445.836 745.2 457.564 721.311C474.513 689.989 470.881 652.07 470.729 610.131C471.108 541.724 470.729 473.317 470.729 404.683H396.275ZM729.96 434.109C709.303 410.979 681.155 399.071 636.135 399.981C628.341 400.967 620.472 402.028 612.678 403.015C590.206 408.703 568.792 420.534 556.231 436.384C518.55 479.233 529.295 554.237 575.148 585.104C620.32 619.08 686.678 626.816 695.153 658.592C703.401 697.497 666.628 710.086 630.081 705.612C603.144 700 588.163 686.273 571.97 661.322C542.159 678.613 542.159 678.614 511.515 696.284C518.779 712.21 526.42 719.415 538.603 733.218C596.26 791.841 740.552 788.959 766.431 700.228C767.489 697.193 774.451 676.868 768.852 645.547C763.025 609.144 739.342 578.582 669.2 550.066C644.836 538.842 617.672 530.803 609.576 512.298C606.701 501.529 606.323 495.462 608.139 488.939C613.36 467.781 638.556 461.183 658.531 467.25C671.394 471.573 683.576 481.509 690.916 497.358C725.268 475.063 725.193 475.213 749.179 459.895C740.402 446.244 735.71 439.948 729.96 434.109Z" fill="#F5F5F5"/>
</svg>
