<svg width="1407" height="1275" viewBox="0 0 1407 1275" fill="none" xmlns="http://www.w3.org/2000/svg">
<path d="M831.089 635.347C831.089 567.548 804.149 502.526 756.197 454.585C708.245 406.644 643.207 379.711 575.392 379.711C507.578 379.711 442.54 406.644 394.588 454.585C346.636 502.526 319.696 567.548 319.696 635.347C319.696 770.945 373.575 900.989 469.48 996.872C565.384 1092.75 695.459 1146.62 831.089 1146.62C966.718 1146.62 1096.79 1092.75 1192.7 996.872C1288.6 900.989 1342.48 770.945 1342.48 635.347C1342.48 408.47 1243.4 203.961 1086.78 64" stroke="#2D3748" stroke-width="127" stroke-linecap="round" stroke-linejoin="round"/>
<path d="M575.392 635.347C575.392 703.146 602.332 768.168 650.284 816.109C698.236 864.05 763.274 890.983 831.089 890.983C898.903 890.983 963.941 864.05 1011.89 816.109C1059.85 768.168 1086.78 703.146 1086.78 635.347C1086.78 499.749 1032.91 369.705 937.001 273.823C841.097 177.94 711.022 124.074 575.392 124.074C439.763 124.074 309.688 177.94 213.783 273.823C117.879 369.705 64 499.749 64 635.347C64 864.141 164.361 1069.93 323.532 1210.53" stroke="#F56565" stroke-width="127" stroke-linecap="round" stroke-linejoin="round"/>
</svg>
