<svg width="400" height="859" viewBox="0 0 400 859" fill="none" xmlns="http://www.w3.org/2000/svg">
<path d="M272.722 110.036C237.382 68.9168 206.95 27.1554 200.733 18.4819C200.079 17.8394 199.097 17.8394 198.442 18.4819C192.225 27.1554 161.793 68.9168 126.454 110.036C-176.88 489.42 174.228 745.451 174.228 745.451L177.173 747.378C179.791 786.892 186.335 843.75 186.335 843.75H199.424H212.513C212.513 843.75 219.058 787.212 221.675 747.378L224.62 745.131C224.947 745.131 576.055 489.42 272.722 110.036ZM199.424 739.667C199.424 739.667 183.717 726.497 179.464 719.75V719.11L198.442 305.993C198.442 304.708 200.406 304.708 200.406 305.993L219.384 719.11V719.75C215.13 726.497 199.424 739.667 199.424 739.667Z" fill="#FCFFFE"/>
</svg>
