<svg width="885" height="858" viewBox="0 0 885 858" fill="none" xmlns="http://www.w3.org/2000/svg">
<g clip-path="url(#clip0_2005_9)">
<path d="M442.5 0C686.886 0 885 192.07 885 429C885 665.93 686.886 858 442.5 858C198.114 858 0 665.93 0 429C0 192.07 198.114 1.59986e-05 442.5 0ZM356.854 299.984C356.649 299.98 259.856 298.004 232.308 308.75C228.554 310.214 225.292 312.576 221.976 314.822C172.925 348.045 139.623 438.969 66.6133 558.161H205.835L356.854 299.984ZM226.008 558.161H366.371L513.871 299.839H375.887L226.008 558.161ZM380.646 558.014C380.812 558.017 477.638 559.997 505.192 549.249C508.946 547.787 512.206 545.425 515.527 543.179C564.578 509.956 597.88 419.031 670.888 299.839H531.666L380.646 558.014ZM749.396 299.839C711.292 299.839 680.403 329.785 680.403 366.726C680.403 403.666 711.292 433.613 749.396 433.613C787.499 433.613 818.387 403.666 818.387 366.726C818.387 329.785 787.498 299.839 749.396 299.839Z" fill="#FFFFF5"/>
</g>
<defs>
<clipPath id="clip0_2005_9">
<rect width="885" height="858" fill="white"/>
</clipPath>
</defs>
</svg>
