<svg width="186" height="186" viewBox="0 0 186 186" fill="none" xmlns="http://www.w3.org/2000/svg">
<circle cx="93" cy="93" r="93" fill="#F6EB17"/>
<path d="M46.6524 68.2482C47.3495 67.7612 48.035 67.2493 48.8239 66.9319C54.6197 64.5998 75 65.0315 75 65.0315L43.2602 121H14C29.3445 95.1611 36.3434 75.4503 46.6524 68.2482Z" fill="#131519"/>
<path d="M108.348 117.752C107.65 118.239 106.965 118.751 106.176 119.068C100.38 121.4 80 120.968 80 120.968L111.74 65H141C125.656 90.8389 118.657 110.55 108.348 117.752Z" fill="#131519"/>
<path d="M79 65H108L77 121H47.5L79 65Z" fill="#131519"/>
<circle cx="157.5" cy="79.5" r="14.5" fill="#131519"/>
</svg>
