<svg width="885" height="787" viewBox="0 0 885 787" fill="none" xmlns="http://www.w3.org/2000/svg">
<g clip-path="url(#clip0_2003_82)">
<path fill-rule="evenodd" clip-rule="evenodd" d="M815.189 613.03C767.055 611.838 729.714 616.225 698.416 627.933C689.405 631.152 674.943 631.152 673.756 641.238C678.572 645.47 679.152 652.397 683.375 658.263C690.592 668.909 703.246 683.251 714.672 690.691L753.187 715.167C776.66 727.924 803.142 735.375 826.008 748.144C839.256 755.595 852.49 765.168 865.737 773.156C872.482 777.412 876.57 784.339 885.001 786.986V785.376C880.792 780.608 879.578 773.693 875.383 768.352L857.306 752.936C839.863 732.192 818.184 714.094 794.71 699.215C775.446 687.508 733.329 671.556 725.505 651.884L724.318 650.692C737.538 649.5 753.187 645.363 765.841 642.168C786.319 637.399 804.963 638.448 826.008 633.667L854.918 626.216V621.447C844.085 611.874 836.261 599.105 824.834 590.068C794.144 566.665 760.418 543.786 725.505 524.639C706.848 514.005 682.768 507.078 662.91 498.053C655.665 494.858 643.646 493.26 639.437 487.943C628.577 476.259 622.574 460.82 614.749 446.979L565.402 354.427C554.569 333.683 547.932 312.938 534.711 293.791C472.71 203.362 405.285 148.58 301.76 94.8468C279.501 83.6757 253.019 78.8711 224.865 73.0293L179.726 70.8833C170.081 67.1636 160.462 57.0536 152.031 52.2609C117.725 33.114 29.2416 -8.37504 3.94726 46.2998C-12.3086 80.874 28.0275 114.912 41.7201 132.473C51.9728 144.705 65.1933 158.535 72.4377 172.364C76.4848 181.401 77.8339 190.987 82.0563 200.56C91.6749 223.963 100.713 250.037 113.354 271.855C120.099 283.026 127.182 294.745 135.613 304.843C140.429 310.804 148.86 313.356 150.655 322.929C142.223 333.575 141.643 349.515 136.827 362.832C115.148 422.944 123.58 497.409 154.27 541.664C163.916 554.957 186.647 584.226 217.486 573.043C244.574 563.47 238.531 533.152 246.355 506.554C248.176 500.175 246.962 495.919 250.564 491.651V492.843L275.251 536.991C293.909 563.053 326.42 590.187 353.495 608.285C367.93 617.859 379.37 634.359 397.42 640.201V638.591H396.233C392.617 633.822 387.194 631.676 382.378 627.957C371.545 618.383 359.512 606.676 351.081 596.041C325.813 566.26 303.554 533.271 283.683 499.233C274.037 482.745 265.606 464.659 257.808 448.171C254.166 441.781 254.166 432.195 248.163 429.024C239.124 440.708 225.904 450.841 219.253 465.196C207.813 488.062 206.626 516.258 202.417 545.515C199.989 546.052 201.068 545.515 199.989 546.707C180.752 542.463 174.114 524.89 166.897 510.011C148.847 472.242 145.825 411.606 161.474 367.983C165.683 356.812 183.76 321.701 176.543 311.066C172.9 300.956 160.894 295.115 154.256 287.127C146.432 277.017 138.028 264.26 132.605 253.089C118.17 223.284 110.953 190.319 95.2903 160.526C88.046 146.696 75.4191 132.33 65.1799 119.573C53.7401 105.207 41.1266 95.0971 32.0881 78.0842C29.0797 72.1232 24.8707 62.657 29.6868 56.2668C30.8739 52.0106 33.3022 50.3057 38.0913 49.3519C45.9157 43.3908 68.2017 50.9495 76.0261 54.1208C98.2851 62.1086 116.942 69.548 135.599 80.7071C144.031 86.0244 153.069 96.1344 163.902 98.8049H176.556C195.82 102.525 217.472 99.9971 235.509 104.766C267.414 113.827 296.296 127.108 322.198 141.486C401.035 185.634 466.059 248.404 509.983 323.418C517.201 335.65 520.209 346.821 526.846 359.59C539.5 385.663 555.149 412.25 567.763 437.799C580.416 462.799 592.45 488.348 610.5 509.093C619.538 520.264 655.639 526.106 671.881 531.96C683.928 536.728 702.572 541.02 713.431 546.862C733.883 558.033 754.347 570.802 773.598 583.034C783.217 589.4 813.327 602.706 815.121 613.316L815.189 613.03ZM201.378 150.785C193.062 150.72 184.772 151.614 176.718 153.444V154.636H177.905C182.721 163.149 191.153 169.002 197.169 176.454L211.024 201.991L212.211 200.799C220.643 195.481 224.865 186.969 224.865 174.212C221.25 170.493 220.656 166.761 217.648 163.041C214.032 157.724 206.208 155.054 201.378 150.809V150.785Z" fill="#FCFEFF"/>
</g>
<defs>
<clipPath id="clip0_2003_82">
<rect width="885" height="787" fill="white"/>
</clipPath>
</defs>
</svg>
