<svg width="745" height="745" viewBox="0 0 745 745" fill="none" xmlns="http://www.w3.org/2000/svg">
<g clip-path="url(#clip0_2004_29)">
<path d="M438.852 1.74609C433.613 1.74609 428.375 2.91016 423.719 4.65625C433.613 11.0586 438.852 19.7891 441.762 29.6836C441.762 30.8477 442.344 32.0117 442.344 33.1758C442.344 34.3398 442.926 35.5039 442.926 36.668C443.508 53.5469 438.27 55.875 434.777 65.7695C428.957 78.5742 430.703 92.543 437.688 103.602C438.27 104.766 438.852 106.512 440.016 107.676C432.449 58.7852 473.191 51.8008 480.758 36.668C481.34 23.2813 470.281 14.5508 461.551 8.14844C452.82 2.91016 445.836 1.74609 438.852 1.74609ZM499.965 12.2227C499.383 16.8789 499.965 15.7148 499.383 18.043C499.383 19.7891 499.383 21.5352 498.801 23.2813C498.219 25.0273 498.219 26.1914 497.637 27.9375C497.055 29.6836 496.473 30.8477 495.891 32.5937C495.309 33.7578 494.727 34.9219 494.145 36.668C493.563 37.25 492.98 38.4141 492.398 38.9961C491.816 39.5781 491.816 40.1602 491.234 40.7422C490.07 41.9062 489.488 43.6523 488.324 44.8164L484.832 48.3086C483.668 49.4727 482.504 50.6367 481.34 51.2188C477.266 54.1289 472.609 56.457 468.535 59.3672C467.371 60.5312 465.625 61.1133 464.461 62.2773C463.297 63.4414 462.133 64.0234 460.969 65.1875L457.477 68.6797C456.313 69.8438 455.148 71.0078 454.566 72.7539C453.402 73.918 452.82 75.6641 451.656 76.8281C451.074 78.5742 450.492 79.7383 449.328 81.4844C448.746 83.2305 448.164 84.3945 447.582 86.1406C447 87.8867 446.418 89.6328 446.418 90.7969C446.418 91.3789 446.418 92.543 445.836 93.125C445.836 93.707 445.836 94.8711 445.254 95.4531V103.602C445.254 105.348 445.254 106.512 445.836 108.258C445.836 110.004 446.418 111.168 447 112.914C447.582 114.66 448.164 115.824 448.746 117.57C449.328 118.734 449.91 119.316 449.91 120.48L405.676 103.602C398.109 101.273 391.125 99.5273 383.559 97.7812C379.484 96.6172 375.41 96.0352 371.336 94.8711C359.695 92.543 348.055 90.7969 336.414 89.6328H335.25C323.609 88.4687 312.551 87.8867 300.91 87.8867C292.18 87.8867 284.031 88.4687 275.883 89.0508C264.242 89.6328 252.602 91.3789 240.961 93.125L232.23 94.8711C226.41 96.0352 220.59 97.1992 214.77 98.9453C211.859 99.5273 208.949 100.691 206.039 101.273C203.129 102.438 200.219 103.602 197.891 104.766C195.563 105.93 193.816 106.512 191.488 107.676C190.906 107.676 190.906 107.676 190.324 108.258C188.578 109.422 186.832 110.004 185.086 111.168C184.504 111.168 183.922 111.75 183.922 111.75C181.594 112.914 179.848 114.078 178.102 114.66C176.938 115.242 175.191 115.824 174.027 116.406C173.445 116.988 172.863 116.988 172.281 117.57C170.535 118.734 168.789 119.316 167.043 120.48C165.297 121.645 163.551 122.227 162.387 123.391C161.223 124.555 159.477 125.137 158.313 126.301C158.313 126.301 157.73 126.301 157.73 126.883C156.566 127.465 155.402 128.629 154.238 129.793L153.656 130.375C152.492 130.957 151.91 132.121 150.746 132.703C150.164 132.703 150.164 133.285 149.582 133.285C148.418 133.867 147.836 135.031 146.672 135.613C146.672 136.195 146.09 136.195 146.09 136.195L142.598 139.688L142.016 140.27L138.523 143.762C138.523 143.762 138.523 144.344 137.941 144.344L135.031 147.254C134.449 147.836 133.867 147.836 133.867 148.418L130.375 151.91C130.375 152.492 129.793 152.492 129.793 153.074L125.137 157.73L124.555 158.313C121.645 161.805 118.152 164.715 114.66 167.625C111.168 170.535 107.676 173.445 103.602 176.355C99.5273 179.266 96.0352 181.594 91.9609 183.922C87.8867 186.25 83.8125 187.996 79.7383 189.742C75.6641 191.488 71.5899 193.234 67.5156 194.398C59.3672 196.145 51.2188 199.637 44.2344 200.219C44.2344 197.309 42.4883 197.891 40.7422 197.891C38.9961 198.473 37.25 198.473 36.0859 199.055C34.3398 199.637 33.1758 200.219 31.4297 200.801C29.6836 201.383 28.5195 201.965 26.7734 203.129C25.6094 204.293 23.8633 204.875 22.6992 206.039C21.5352 207.203 19.7891 208.367 18.625 209.531C17.4609 210.695 15.7148 211.859 14.5508 213.023C13.3867 214.187 12.2227 215.352 11.0586 217.098C9.89453 218.844 8.73047 220.008 8.14844 221.754C6.98438 222.918 6.40234 224.664 5.23828 226.41C4.65625 228.156 3.49219 229.902 2.91016 231.648L1.16406 236.887C0.582031 238.633 0.582031 239.797 5.63567e-08 241.543V242.125C-0.582031 243.871 -0.582031 246.199 -0.582031 247.363C5.63567e-08 246.781 5.63567e-08 247.945 5.63567e-08 249.109V251.438C5.63567e-08 252.602 0.582031 253.766 0.582031 254.93C1.16406 256.094 1.16406 257.258 1.74609 258.422C2.32813 259.586 2.91016 260.75 4.07422 261.914C4.65625 263.078 5.82031 264.242 6.40234 265.406C7.56641 266.57 8.73047 267.734 9.89453 268.316C11.0586 269.48 12.2227 270.645 13.3867 271.227C18.043 275.301 19.207 276.465 25.0273 279.957C26.1914 280.539 26.7734 281.121 27.9375 281.703H28.5195V282.867C28.5195 284.613 29.1016 285.777 29.6836 287.523C30.2656 289.27 30.8477 291.016 31.4297 292.18L33.1758 295.672C33.1758 296.254 33.7578 296.254 33.7578 296.836C34.3398 298.582 35.5039 299.746 36.0859 300.91C37.25 302.074 37.832 303.82 38.9961 304.984L42.4883 308.477L45.9805 311.969H46.5625C47.7266 313.133 48.8906 313.715 50.0547 314.879C51.2188 316.043 52.9649 316.625 54.1289 317.207C55.293 317.789 57.0391 318.953 58.7852 319.535C59.9492 320.117 61.1133 320.699 62.8594 320.699C62.8594 320.699 63.4414 320.699 63.4414 321.281C64.0234 321.281 65.1875 321.863 65.7695 321.863C65.1875 332.34 65.1875 342.234 66.3516 345.727C68.0977 349.801 76.8281 337.578 84.9766 324.191C83.8125 337.578 83.2305 353.293 84.9766 357.949C87.3047 362.605 98.3633 347.473 108.84 331.176C245.035 299.746 369.59 394.035 382.977 527.32C380.648 506.367 355.039 494.727 342.816 497.637C336.996 511.605 327.102 530.23 311.387 541.289C312.551 528.484 311.969 515.68 309.641 502.875C305.566 520.336 297.418 537.215 285.777 551.184C267.734 552.348 249.109 543.617 239.797 530.23C239.215 529.648 238.633 528.484 238.051 527.902C237.469 526.738 236.887 524.992 236.305 523.828C235.723 522.664 235.141 520.918 235.141 519.754V515.68V512.77C235.141 511.605 235.723 509.859 236.305 508.695C236.887 507.531 236.887 505.785 237.469 504.621C238.051 503.457 238.633 501.711 239.797 500.547C243.289 491.234 243.289 483.668 236.887 479.594L233.395 477.848C232.813 477.848 231.648 477.266 231.066 477.266C230.484 477.266 229.902 476.684 229.32 476.684C228.156 476.102 226.41 476.102 225.246 475.519C224.082 474.937 222.336 474.937 221.172 474.937C220.008 474.937 218.262 474.355 217.098 474.355H214.188C212.441 474.355 211.277 474.355 210.113 474.937C208.949 474.937 207.203 475.519 206.039 475.519C204.875 476.102 203.129 476.102 201.965 476.684C200.801 477.266 199.637 477.848 197.891 478.43L194.398 480.176C149.582 509.277 176.355 577.957 206.621 597.746C194.98 600.074 183.34 602.402 179.848 604.73L179.266 605.312C187.414 610.551 196.145 614.625 205.457 618.117C217.68 622.191 231.066 625.684 236.887 627.43C252.602 630.922 268.898 632.086 285.195 630.922C370.172 625.102 440.016 559.914 452.82 474.937C453.402 476.684 453.402 478.43 453.984 480.176C454.566 483.668 455.148 487.16 455.731 491.234C456.313 492.98 456.313 494.727 456.313 496.473V497.055C456.313 498.801 456.895 500.547 456.895 502.293C456.895 504.621 457.477 506.367 457.477 508.695V533.141C457.477 534.887 456.895 536.051 456.895 537.797V539.543C456.895 541.289 456.313 543.035 456.313 545.363C455.731 547.109 455.73 548.855 455.148 550.602V551.184C454.566 552.93 454.566 554.676 453.984 556.422V557.004C453.402 558.75 453.402 560.496 452.82 562.242V562.824L451.074 568.062V568.644C450.492 570.391 449.91 572.719 449.328 574.465C448.746 576.211 448.164 577.957 447 580.285C446.418 582.031 445.836 584.359 444.672 586.105C444.09 587.852 442.926 589.598 442.344 591.926C441.762 593.672 440.598 595.418 440.016 597.164C440.016 597.746 439.434 598.328 439.434 598.328C439.434 598.328 439.434 598.91 438.852 598.91C426.629 623.937 408.004 646.055 384.723 663.516C382.977 664.68 381.813 665.844 380.066 667.008C379.484 667.59 378.902 667.59 378.902 668.172C377.738 669.336 375.992 669.918 374.828 671.082L375.41 672.246C378.32 671.664 380.648 671.664 383.559 671.082C388.797 670.5 393.453 669.336 398.691 668.172C399.855 668.172 401.602 667.59 402.766 667.008C403.93 667.008 404.512 666.426 405.676 666.426C406.84 666.426 408.586 665.844 409.75 665.844C410.914 665.262 412.078 665.262 413.242 664.68C432.449 660.023 451.074 653.621 469.117 646.055C438.27 687.961 397.527 721.719 349.801 743.836C371.918 742.09 394.035 738.598 415.57 732.195C492.981 709.496 558.168 657.113 597.164 586.688C589.016 630.922 571.555 673.41 545.363 710.66C563.988 698.437 580.867 683.887 596.582 668.172C639.652 623.355 668.172 565.734 677.484 504.621C683.887 534.887 686.215 566.316 683.305 597.164C822.41 403.348 694.945 202.547 641.398 149.582C641.398 149 640.816 149 640.816 148.418C640.816 150.746 640.816 153.074 640.234 155.402C639.652 160.059 639.07 164.133 638.488 168.207C637.324 172.281 636.16 176.938 634.996 181.012C633.832 185.086 632.086 189.16 630.34 193.234C628.594 197.309 626.848 201.383 624.52 204.875C622.191 208.367 619.863 212.441 617.535 215.934C615.207 219.426 612.297 222.918 609.387 226.41C606.477 229.902 603.566 232.812 600.074 236.305C598.328 238.051 596.582 239.797 594.254 240.961C592.508 242.125 591.344 243.289 589.598 245.035C586.106 247.945 582.613 250.273 578.539 252.602C575.047 254.93 570.973 257.258 566.898 259.004L554.676 264.242C550.602 265.988 546.527 267.152 542.453 268.316C538.379 269.48 533.723 270.645 529.648 271.227C524.992 271.809 520.918 272.391 516.844 272.973C513.934 272.973 510.441 273.555 507.531 273.555C502.875 273.555 498.801 272.973 494.727 272.973C490.07 272.391 485.996 271.809 481.922 271.227C477.266 270.645 473.191 269.48 469.117 267.734C473.191 267.152 477.848 267.152 481.922 265.988C486.578 265.406 490.652 264.242 494.727 263.078C498.801 261.914 503.457 260.75 506.949 259.004L519.172 253.766C523.246 252.02 526.738 249.691 530.813 247.363C534.305 245.035 538.379 242.125 541.871 239.797C545.363 236.887 548.856 233.977 551.766 231.066C555.258 228.156 558.168 224.664 561.078 221.754C563.988 218.262 566.898 214.77 569.227 211.277C569.809 210.695 569.809 210.113 570.391 209.531C572.137 206.621 574.465 203.129 576.211 200.219C578.539 196.145 580.285 192.652 582.031 188.578C583.777 184.504 585.523 180.43 586.688 176.355L590.18 164.133C590.762 159.477 591.926 155.402 591.926 151.328C592.508 146.672 592.508 142.598 592.508 138.523C592.508 135.613 592.508 132.121 591.926 129.211C591.344 124.555 590.762 120.48 590.18 116.406C589.598 111.75 588.434 107.676 587.27 103.602C586.106 99.5273 584.359 95.4531 583.195 91.3789C581.449 87.3047 579.703 83.2305 577.957 79.7383C575.629 75.6641 573.883 72.1719 571.555 68.0977C569.227 64.6055 566.316 61.1133 563.988 57.6211C561.078 54.1289 558.168 51.2187 555.258 47.7266C553.512 45.9805 551.766 44.2344 550.02 43.0703C541.289 36.0859 532.559 30.2656 523.246 24.4453C522.082 23.8633 520.918 23.2813 519.172 22.6992C511.605 16.2969 505.785 14.5508 499.965 12.2227Z" fill="#F3F3F3"/>
</g>
<defs>
<clipPath id="clip0_2004_29">
<rect width="745" height="745" fill="white"/>
</clipPath>
</defs>
</svg>
