<svg width="881" height="881" viewBox="0 0 881 881" fill="none" xmlns="http://www.w3.org/2000/svg">
<g clip-path="url(#clip0_1_165)">
<mask id="mask0_1_165" style="mask-type:luminance" maskUnits="userSpaceOnUse" x="0" y="0" width="881" height="881">
<path d="M881 0H0V881H881V0Z" fill="white"/>
</mask>
<g mask="url(#mask0_1_165)">
<path d="M411.65 0.23708C409.755 0.409293 403.727 1.01204 398.302 1.44257C273.17 12.7225 155.962 80.2301 81.7272 183.989C40.3899 241.68 13.9513 307.121 3.96149 376.437C0.430596 400.633 0 407.78 0 440.586C0 473.393 0.430596 480.54 3.96149 504.736C27.9026 670.146 145.628 809.123 305.293 860.614C333.884 869.828 364.026 876.113 398.302 879.902C411.65 881.366 469.35 881.366 482.698 879.902C541.862 873.358 591.984 858.72 641.416 833.491C648.995 829.616 650.459 828.583 649.425 827.722C648.736 827.205 616.442 783.893 577.688 731.54L507.242 636.393L418.97 505.769C370.399 433.956 330.44 375.231 330.095 375.231C329.751 375.145 329.406 433.181 329.234 504.047C328.976 628.126 328.889 633.121 327.339 636.048C325.1 640.267 323.378 641.99 319.761 643.884C317.005 645.262 314.594 645.52 301.59 645.52H286.691L282.73 643.023C280.146 641.387 278.251 639.234 276.96 636.737L275.151 632.862L275.323 460.219L275.582 287.489L278.251 284.131C279.629 282.322 282.557 279.997 284.624 278.878C288.155 277.156 289.533 276.984 304.432 276.984C322 276.984 324.928 277.673 329.492 282.667C330.784 284.044 378.58 356.03 435.763 442.739C492.947 529.448 571.143 647.845 609.552 705.967L679.309 811.62L682.84 809.295C714.101 788.974 747.171 760.042 773.351 729.904C829.07 665.927 864.982 587.915 877.039 504.736C880.569 480.54 881 473.393 881 440.586C881 407.78 880.569 400.633 877.039 376.437C853.097 211.026 735.372 72.05 575.707 20.5582C547.546 11.4309 517.577 5.14516 483.99 1.35647C475.723 0.4954 418.798 -0.451773 411.65 0.23708ZM591.984 266.651C596.118 268.717 599.476 272.678 600.682 276.811C601.371 279.05 601.543 326.926 601.371 434.817L601.112 589.637L573.813 547.789L546.427 505.941V393.4C546.427 320.64 546.771 279.739 547.288 277.759C548.666 272.937 551.68 269.148 555.814 266.909C559.345 265.101 560.636 264.929 574.157 264.929C586.903 264.929 589.142 265.101 591.984 266.651Z" fill="#F9F9F9"/>
</g>
</g>
<defs>
<clipPath id="clip0_1_165">
<rect width="881" height="881" fill="white"/>
</clipPath>
</defs>
</svg>
