<svg width="891" height="1007" viewBox="0 0 891 1007" fill="none" xmlns="http://www.w3.org/2000/svg">
<path d="M445.5 1005.13C431.665 1005.13 418.752 1001.44 406.761 994.974L284.087 922.025C265.64 911.867 274.863 908.173 280.398 906.327C305.301 898.016 309.913 896.169 335.739 881.395C338.506 879.548 342.196 880.471 344.963 882.318L439.043 938.646C442.733 940.493 447.345 940.493 450.112 938.646L818.134 725.338C821.823 723.491 823.668 719.798 823.668 715.181V289.489C823.668 284.872 821.823 281.178 818.134 279.331L450.112 66.9472C446.422 65.1004 441.811 65.1004 439.043 66.9472L71.0217 279.331C67.3323 281.178 65.4876 285.795 65.4876 289.489V715.181C65.4876 718.874 67.3323 723.491 71.0217 725.338L171.559 783.513C225.978 811.215 260.106 778.896 260.106 746.577V326.425C260.106 320.885 264.717 315.344 271.174 315.344H318.214C323.748 315.344 329.283 319.961 329.283 326.425V746.577C329.283 819.526 289.621 862.003 220.444 862.003C199.23 862.003 182.627 862.003 135.587 838.918L38.7391 783.513C14.7578 769.662 0 743.807 0 716.104V290.412C0 262.71 14.7578 236.855 38.7391 223.003L406.761 9.6958C429.82 -3.23193 461.18 -3.23193 484.239 9.6958L852.261 223.003C876.242 236.855 891 262.71 891 290.412V716.104C891 743.807 876.242 769.662 852.261 783.513L484.239 996.821C472.248 1002.36 458.413 1005.13 445.5 1005.13ZM558.95 712.411C397.537 712.411 364.332 638.538 364.332 575.746C364.332 570.205 368.944 564.665 375.401 564.665H423.363C428.898 564.665 433.509 568.359 433.509 573.899C440.888 622.84 462.102 646.848 559.873 646.848C637.351 646.848 670.556 629.304 670.556 587.75C670.556 563.742 661.332 546.197 540.503 534.192C439.966 524.035 377.245 501.873 377.245 421.537C377.245 346.74 439.966 302.417 545.115 302.417C663.177 302.417 721.286 343.047 728.665 431.694C728.665 434.464 727.742 437.234 725.897 440.005C724.053 441.852 721.286 443.698 718.519 443.698H670.556C665.944 443.698 661.332 440.005 660.41 435.388C649.342 384.6 620.748 367.979 545.115 367.979C460.258 367.979 450.112 397.528 450.112 419.69C450.112 446.469 462.102 454.779 576.475 469.554C689.925 484.328 743.422 505.567 743.422 584.98C742.5 666.24 676.09 712.411 558.95 712.411Z" fill="white"/>
</svg>
