<svg width="1568" height="1568" viewBox="0 0 1568 1568" fill="none" xmlns="http://www.w3.org/2000/svg">
<g clip-path="url(#clip0_8_105)">
<path d="M784 0C991.93 0 1191.34 82.5994 1338.37 229.628C1485.4 376.656 1568 576.07 1568 784C1568 991.93 1485.4 1191.34 1338.37 1338.37C1191.34 1485.4 991.93 1568 784 1568C576.07 1568 376.656 1485.4 229.628 1338.37C82.5994 1191.34 0 991.93 0 784C0 576.07 82.5994 376.656 229.628 229.628C376.656 82.5994 576.07 0 784 0ZM470.731 854.192C435.451 854.192 405.071 863.258 379.591 881.388C354.601 899.028 335.736 923.282 322.996 954.152C310.746 984.532 304.621 1019.08 304.621 1057.79C304.621 1096.5 310.746 1131.29 322.996 1162.16C335.736 1192.54 354.601 1216.79 379.591 1234.92C405.071 1252.56 435.451 1261.38 470.731 1261.38C490.331 1261.38 508.216 1258.2 524.386 1251.83C540.556 1245.46 554.521 1236.15 566.281 1223.9C573.057 1216.56 578.935 1208.32 583.921 1199.19V1362.81H695.641V863.013H589.066L586.976 920.486C577.393 901.604 564.37 886.611 547.906 875.508C526.836 861.298 501.111 854.192 470.731 854.192ZM1082.05 853.457C1045.3 853.457 1013.7 858.603 987.24 868.893C960.78 878.693 940.445 892.903 926.235 911.522C912.515 930.142 905.655 952.192 905.655 977.672C905.655 1001.19 912.025 1020.55 924.765 1035.74C937.505 1050.44 955.39 1062.44 978.42 1071.75C1001.94 1080.57 1033.55 1088.9 1073.24 1096.74C1079.12 1098.21 1084.01 1099.19 1087.93 1099.68C1101.65 1102.62 1112.44 1105.56 1120.28 1108.5C1128.61 1111.44 1135.22 1115.85 1140.12 1121.73C1145.51 1127.61 1148.45 1134.96 1148.94 1143.78C1148.94 1157.01 1142.82 1167.06 1130.57 1173.92C1118.32 1180.29 1103.86 1183.47 1087.2 1183.47C1072.5 1183.47 1059.52 1181.27 1048.25 1176.86C1037.47 1171.96 1028.65 1165.1 1021.79 1156.28C1015.42 1146.97 1011 1135.94 1008.55 1123.2L896.835 1129.08C898.795 1156.52 907.86 1180.29 924.03 1200.38C940.2 1219.98 962.25 1235.17 990.18 1245.95C1018.6 1256.24 1051.68 1261.38 1089.41 1261.38C1123.22 1261.38 1153.11 1257.22 1179.08 1248.89C1205.05 1240.07 1225.38 1227.08 1240.08 1209.93C1255.27 1192.78 1262.87 1171.47 1262.87 1145.99C1262.87 1121.49 1256.49 1101.4 1243.75 1085.72C1231.5 1070.04 1213.13 1057.54 1188.63 1048.23C1164.13 1038.43 1131.79 1030.35 1091.61 1023.98C1070.05 1020.06 1052.9 1014.67 1040.16 1007.81C1027.42 1000.46 1020.81 990.167 1020.32 976.938C1019.83 963.218 1024.97 952.192 1035.75 943.862C1046.53 935.532 1060.5 931.367 1077.65 931.367C1094.8 931.367 1109.99 936.757 1123.21 947.537C1136.93 957.827 1145.27 971.793 1148.21 989.433L1259.92 985.022C1253.06 943.862 1233.95 911.767 1202.59 888.737C1171.23 865.217 1131.05 853.457 1082.05 853.457ZM505.276 938.718C523.896 938.718 539.576 944.352 552.316 955.622C565.546 966.402 575.346 980.857 581.716 998.987C588.086 1016.63 591.271 1036.23 591.271 1057.79C591.271 1079.84 588.086 1099.93 581.716 1118.06C575.346 1135.7 565.546 1149.91 552.316 1160.69C539.576 1171.47 523.896 1176.86 505.276 1176.86C477.346 1176.86 455.786 1165.59 440.596 1143.05C425.896 1120.51 418.546 1092.09 418.546 1057.79C418.546 1023.98 425.896 995.803 440.596 973.263C455.786 950.233 477.346 938.718 505.276 938.718ZM893.699 311.763V562.397C893.699 607.967 905.46 643.982 928.979 670.442C952.499 696.902 985.084 710.133 1026.73 710.133C1060.54 710.133 1088.72 701.067 1111.26 682.938C1123.98 672.428 1133.97 658.405 1141.23 640.871L1143.6 701.312H1244.29V311.763H1133.31V525.647C1133.31 557.497 1127.18 581.508 1114.93 597.678C1103.17 613.847 1086.02 621.933 1063.48 621.933C1048.78 621.933 1037.02 618.503 1028.2 611.643C1019.87 604.293 1013.99 593.757 1010.56 580.037C1007.13 566.317 1005.42 548.187 1005.42 525.647V311.763H893.699ZM554.239 302.942C519.449 302.942 490.784 312.252 468.244 330.872C455.342 341.53 445.252 355.962 437.969 374.165L435.169 311.763H335.209V701.312H446.93V487.428C446.93 455.578 452.809 431.567 464.569 415.397C476.819 399.227 494.705 391.143 518.225 391.143C532.924 391.143 544.684 394.817 553.504 402.167C562.324 409.027 568.449 419.317 571.879 433.037C575.799 446.757 577.76 464.888 577.76 487.428V701.312H688.744V450.678C688.744 405.108 676.739 369.093 652.729 342.633C629.209 316.173 596.379 302.942 554.239 302.942Z" fill="white"/>
</g>
<defs>
<clipPath id="clip0_8_105">
<rect width="1568" height="1568" fill="white"/>
</clipPath>
</defs>
</svg>
