<svg width="885" height="885" viewBox="0 0 885 885" fill="none" xmlns="http://www.w3.org/2000/svg">
<path d="M442.5 210.879C686.886 210.879 885 314.006 885 441.221C885 568.435 686.886 671.562 442.5 671.562C198.114 671.562 0 568.435 0 441.221C0.000190109 314.006 198.114 210.879 442.5 210.879ZM172.759 332.11L124.263 577.607H181.851L193.975 513.96H248.522C300.049 516.992 357.634 474.56 357.634 401.821C357.634 359.386 333.386 335.142 284.895 332.11H172.759ZM578.887 332.11L530.396 577.607H587.979L600.103 513.96H654.658C706.182 516.992 763.768 474.56 763.769 401.821C763.769 359.386 739.521 335.142 691.026 332.11H578.887ZM394.858 268.466L346.367 513.96H403.954L431.23 377.573H476.693C497.906 377.573 497.906 386.666 494.878 401.821L473.662 513.96H534.277L555.493 389.697C561.553 359.386 543.369 335.142 494.874 332.11H440.322L452.446 268.466H394.858ZM260.649 377.573C281.865 377.573 297.018 386.666 297.018 404.85C293.989 456.376 269.742 465.468 242.466 468.5H206.095L221.25 377.573H260.649ZM666.782 377.573C687.998 377.573 703.149 386.666 703.149 404.85C700.121 456.376 675.874 465.468 648.598 468.5H612.223L627.379 377.573H666.782Z" fill="white"/>
</svg>
