<svg width="885" height="913" viewBox="0 0 885 913" fill="none" xmlns="http://www.w3.org/2000/svg">
<path d="M824.215 556.313C721.183 577.56 714.1 542.686 714.1 542.686C822.886 381.313 868.362 176.473 829.117 126.34C722.053 -10.414 536.721 54.2618 533.629 55.9409L532.633 56.1191C512.277 51.8947 489.496 49.3781 463.893 48.9604C417.272 48.1966 381.909 61.1789 355.074 81.5225C355.074 81.5225 24.4602 -54.6377 39.8366 252.77C43.1077 318.168 133.598 747.605 241.532 617.895C280.982 570.465 319.098 530.361 319.098 530.361C338.031 542.934 360.695 549.347 384.455 547.043L386.3 545.477C385.727 551.366 385.989 557.126 387.04 563.945C359.234 595.002 367.405 600.455 311.821 611.893C255.577 623.481 288.618 644.111 310.19 649.503C336.343 656.041 396.847 665.303 437.728 608.091L436.098 614.619C446.993 623.342 454.643 671.362 453.361 714.891C452.079 758.423 451.222 788.309 459.807 811.652C468.391 834.996 476.947 887.519 550.017 871.866C611.074 858.786 642.714 824.888 647.115 768.346C650.239 728.148 657.307 734.09 657.754 698.151L663.424 681.137C669.962 626.647 664.462 609.067 702.079 617.244L711.22 618.046C738.907 619.306 775.143 613.595 796.41 603.713C842.205 582.466 869.365 546.992 824.211 556.313H824.215Z" fill="#B7B7B7"/>
<path d="M442.152 587.548C439.315 688.941 442.865 791.04 452.789 815.854C462.719 840.668 483.97 888.931 557.046 873.281C618.097 860.196 640.311 834.875 649.95 778.983C657.049 737.862 670.736 623.659 672.491 600.26" stroke="white" stroke-width="16.6201" stroke-linecap="round" stroke-linejoin="round"/>
<path d="M354.565 79.2577C354.565 79.2577 23.7256 -55.9217 39.1061 251.486C42.3772 316.884 132.874 746.335 240.806 616.619C280.247 569.182 315.918 531.978 315.918 531.978" stroke="white" stroke-width="16.6201" stroke-linecap="round" stroke-linejoin="round"/>
<path d="M533.267 54.5853C521.815 58.1748 717.3 -16.8561 828.397 125.06C867.639 175.195 822.164 380.035 713.38 541.412" stroke="white" stroke-width="16.6201" stroke-linecap="round" stroke-linejoin="round"/>
<path d="M713.378 541.412C713.378 541.412 720.467 576.296 823.501 555.035C868.645 545.714 841.477 581.192 795.692 602.449C758.116 619.883 673.873 624.351 672.496 600.26C668.955 538.103 716.833 556.986 713.378 541.412ZM713.378 541.412C710.254 527.385 688.844 513.619 674.68 479.289C662.314 449.326 505.091 219.544 718.281 253.67C726.092 252.055 662.679 50.9464 463.163 47.6763C263.692 44.4061 270.236 292.91 270.236 292.91" stroke="white" stroke-width="16.6201" stroke-linecap="round" stroke-linejoin="bevel"/>
<path d="M386.311 562.669C358.502 593.724 366.681 599.177 311.093 610.619C254.849 622.209 287.894 642.835 309.46 648.225C335.612 654.767 396.116 664.029 436.998 606.802C449.447 589.379 436.924 561.578 419.823 554.491C411.56 551.069 400.512 546.781 386.311 562.669Z" stroke="white" stroke-width="16.6201" stroke-linecap="round" stroke-linejoin="round"/>
<path d="M384.492 562.126C381.69 543.867 390.493 522.139 399.928 496.72C414.106 458.58 446.819 420.433 420.65 299.448C401.144 209.291 270.315 280.686 270.233 292.91C270.153 305.131 276.15 354.873 268.048 412.798C257.474 488.383 316.157 552.31 383.732 545.77" stroke="white" stroke-width="16.6201" stroke-linecap="round" stroke-linejoin="round"/>
<path d="M353.362 291.077C352.772 295.252 361.008 306.394 371.747 307.883C382.468 309.377 391.644 300.671 392.226 296.499C392.808 292.324 384.582 287.725 373.838 286.23C363.112 284.734 353.931 286.912 353.364 291.077H353.362Z" fill="white" stroke="white" stroke-width="5.54"/>
<path d="M679.906 282.565C680.488 286.74 672.262 297.882 661.521 299.37C650.792 300.865 641.616 292.159 641.028 287.987C640.46 283.812 648.688 279.213 659.419 277.718C670.15 276.223 679.324 278.4 679.906 282.567V282.565Z" fill="white" stroke="white" stroke-width="2.77"/>
<path d="M718.28 253.67C720.048 286.421 711.224 308.728 710.112 343.592C708.465 394.268 734.28 452.27 695.383 510.345" stroke="white" stroke-width="16.6201" stroke-linecap="round" stroke-linejoin="round"/>
</svg>
