<svg width="885" height="668" viewBox="0 0 885 668" fill="none" xmlns="http://www.w3.org/2000/svg">
<path d="M518.237 6.81982C615.724 6.78593 713.216 6.48993 810.703 6.90088C868.659 7.13823 884.998 26.5031 872.505 83.7388C835.918 251.362 798.509 418.816 760.597 586.147C748.607 639.036 721.062 660.701 665.424 660.867C470.446 661.447 275.467 661.511 80.4932 660.841C16.7629 660.617 -0.00112544 639.032 13.7295 578.635C50.9686 414.607 88.4582 250.635 126.197 86.7212C140.58 24.2577 162.195 7.10849 225.764 6.92627C323.255 6.65089 420.746 6.85372 518.237 6.81982ZM223.091 25.8423C175.913 25.4059 154.573 44.8681 144.681 88.9028C107.789 253.086 68.8429 416.807 31.1123 580.804C19.9829 629.16 28.9727 640.828 78.4131 641.15C175.909 641.79 273.412 641.341 370.912 641.375C465.103 641.408 559.303 641.557 653.498 641.358C716.821 641.218 732.555 629.732 746.214 569.543C782.712 408.716 818.579 247.744 854.221 86.7251C865.197 37.1281 856.987 26.6682 808.085 26.6216C613.09 26.4225 418.073 27.6513 223.091 25.8423Z" fill="#E0EAF5"/>
<path fill-rule="evenodd" clip-rule="evenodd" d="M484.746 573.615C458.497 573.615 432.209 574.517 406.019 573.327C385.124 572.382 372.55 560.706 372.813 538.697C373.067 517.887 383.556 502.242 404.43 501.678C461.801 500.141 519.257 500.471 576.649 501.594C594.888 501.95 608.351 513.833 608.241 532.838C608.11 554.64 596.637 571.531 573.29 572.937C543.871 574.717 514.271 573.378 484.75 573.378L484.746 573.615Z" fill="#FCFDFD"/>
<path fill-rule="evenodd" clip-rule="evenodd" d="M453.876 319.981C447.339 312.313 440.162 303.484 432.562 295.045C389.464 247.172 346.747 198.943 302.882 151.786C282.809 130.205 276.412 109.247 300.518 87.9453C324.34 66.8897 347.747 68.7538 369.599 92.9784C430.456 160.42 491.242 227.938 553.108 294.452C576.206 319.295 570.826 336.186 545.385 354.594C447.737 425.272 350.64 496.717 253.649 568.298C231.848 584.393 211.063 588.422 193.452 564.651C174.023 538.431 191.999 522.832 212.152 508.156C284.228 455.657 356.165 402.963 427.792 349.853C437.769 342.456 452.092 338.143 453.876 319.981Z" fill="#FDFDFE"/>
</svg>
