<svg width="885" height="885" viewBox="0 0 885 885" fill="none" xmlns="http://www.w3.org/2000/svg">
<g clip-path="url(#clip0_2003_141)">
<path d="M803.102 672.368L499.599 27.8344C491.916 11.6745 475.992 1.02747 458.123 0.102761C440.213 -1.09727 423.121 7.7631 413.779 23.0911L84.5957 556.257C74.3764 572.693 74.5914 593.557 85.1473 609.779L246.088 859.01C258.592 878.224 282.247 886.923 304.22 880.388L771.267 742.238C785.496 738.078 797.221 727.953 803.411 714.484C809.517 701.079 809.412 685.666 803.125 672.346L803.102 672.368ZM735.152 700.011L338.835 817.203C326.745 820.799 315.141 810.32 317.656 798.12L459.248 120.141C461.896 107.455 479.413 105.448 484.95 117.184L747.066 673.802C749.411 678.822 749.439 684.617 747.143 689.66C744.847 694.702 740.457 698.485 735.13 700.011H735.152Z" fill="#FFFBFB"/>
</g>
<defs>
<clipPath id="clip0_2003_141">
<rect width="885" height="885" fill="white"/>
</clipPath>
</defs>
</svg>
