<svg width="885" height="885" viewBox="0 0 885 885" fill="none" xmlns="http://www.w3.org/2000/svg">
<path d="M761.609 226.967C823.636 226.967 852.838 272.021 868.142 331.74C889.446 414.68 890.394 476.708 868.142 541.363C846.6 604.165 823.555 646.138 761.609 646.138H442.084V672.37H655.072V750.978C655.072 810.539 602.2 840.706 548.54 855.751C467.811 878.434 403.021 874.962 335.552 855.751C279.205 839.705 229.019 806.914 229.019 750.978V554.471C229.019 497.917 277.237 449.627 335.552 449.627H548.54C619.484 449.627 681.748 389.684 681.748 318.624V226.967H761.609ZM561.87 724.747C539.85 724.747 521.936 742.333 521.936 764.019C521.936 785.778 539.855 803.367 561.87 803.367C583.971 803.367 601.805 785.774 601.806 764.019C601.806 742.337 583.962 724.747 561.87 724.747ZM335.547 14.7246C396.782 4.23148 475.297 2.91992 548.535 14.7246C606.381 24.0591 655.068 66.1843 655.068 122.117V318.624C655.068 376.257 607.798 423.468 548.535 423.468H335.547C263.261 423.468 202.339 483.725 202.339 551.848V646.128H129.105C67.1593 646.128 31.0926 602.459 15.9414 541.354C-4.49559 459.262 -3.628 410.351 15.9414 331.731C32.9082 263.146 87.1225 226.957 149.073 226.957H442.079V200.725H229.011V122.113L229.015 122.117C229.015 62.5556 245.351 30.154 335.547 14.7246ZM322.215 69.7295C300.114 69.7297 282.28 87.3235 282.28 109.079C282.28 130.76 300.123 148.349 322.215 148.35C344.235 148.35 362.15 130.765 362.15 109.079C362.15 87.319 344.231 69.7295 322.215 69.7295Z" fill="url(#paint0_linear_2005_17)"/>
<defs>
<linearGradient id="paint0_linear_2005_17" x1="884.484" y1="342.674" x2="0.94683" y2="335.497" gradientUnits="userSpaceOnUse">
<stop stop-color="white"/>
<stop offset="1" stop-color="#E3E3E3"/>
</linearGradient>
</defs>
</svg>
