<svg width="859" height="979" viewBox="0 0 859 979" fill="none" xmlns="http://www.w3.org/2000/svg">
<path d="M859 489.587C859 432.671 787.738 378.732 678.48 345.283C703.694 233.902 692.488 145.288 643.112 116.918C631.731 110.263 618.424 107.111 603.891 107.111V146.164C611.946 146.164 618.424 147.74 623.852 150.717C647.664 164.377 657.995 216.39 649.941 283.288C648.015 299.75 644.863 317.087 641.011 334.775C606.693 326.369 569.223 319.889 529.828 315.686C506.19 283.288 481.677 253.867 456.989 228.123C514.069 175.06 567.647 145.989 604.066 145.989V106.936C555.916 106.936 492.883 141.26 429.15 200.803C365.416 141.611 302.383 107.636 254.233 107.636V146.689C290.477 146.689 344.23 175.585 401.31 228.298C376.797 254.042 352.285 283.288 328.997 315.686C289.427 319.889 251.957 326.369 217.639 334.95C213.612 317.438 210.635 300.45 208.534 284.164C200.305 217.265 210.46 165.253 234.098 151.418C239.35 148.265 246.179 146.864 254.233 146.864V107.811C239.525 107.811 226.219 110.963 214.662 117.618C165.462 145.989 154.431 234.428 179.819 345.458C70.9121 379.082 0 432.846 0 489.587C0 546.503 71.2623 600.442 180.52 633.891C155.306 745.272 166.512 833.885 215.888 862.256C227.269 868.911 240.576 872.063 255.284 872.063C303.434 872.063 366.467 837.738 430.2 778.195C493.934 837.388 556.967 871.363 605.117 871.363C619.825 871.363 633.132 868.21 644.688 861.555C693.889 833.185 704.919 744.746 679.531 633.716C788.088 600.267 859 546.328 859 489.587ZM631.031 372.778C624.552 395.369 616.498 418.661 607.393 441.952C600.214 427.942 592.685 413.932 584.456 399.922C576.402 385.912 567.823 372.252 559.243 358.943C584.106 362.62 608.094 367.173 631.031 372.778ZM550.839 559.287C537.181 582.929 523.174 605.345 508.641 626.186C482.553 628.462 456.114 629.688 429.5 629.688C403.061 629.688 376.622 628.462 350.709 626.361C336.176 605.521 321.994 583.28 308.337 559.813C295.03 536.871 282.948 513.579 271.917 490.112C282.773 466.645 295.03 443.178 308.161 420.237C321.819 396.595 335.826 374.179 350.359 353.338C376.447 351.062 402.886 349.836 429.5 349.836C455.939 349.836 482.378 351.062 508.291 353.163C522.824 374.003 537.006 396.244 550.663 419.711C563.97 442.653 576.052 465.945 587.083 489.412C576.052 512.879 563.97 536.346 550.839 559.287ZM607.393 536.521C616.848 559.988 624.902 583.455 631.556 606.221C608.619 611.825 584.456 616.554 559.418 620.231C567.998 606.747 576.577 592.911 584.631 578.726C592.686 564.716 600.214 550.531 607.393 536.521ZM429.85 723.381C413.567 706.569 397.283 687.83 381.175 667.34C396.933 668.041 413.041 668.566 429.325 668.566C445.784 668.566 462.067 668.216 478 667.34C462.242 687.83 445.959 706.569 429.85 723.381ZM299.582 620.231C274.719 616.554 250.731 612 227.794 606.396C234.273 583.805 242.327 560.513 251.432 537.221C258.61 551.231 266.139 565.242 274.369 579.252C282.598 593.262 291.002 606.922 299.582 620.231ZM428.975 255.793C445.258 272.605 461.542 291.344 477.65 311.834C461.892 311.133 445.784 310.608 429.5 310.608C413.041 310.608 396.758 310.958 380.825 311.834C396.583 291.344 412.866 272.605 428.975 255.793ZM299.407 358.943C290.827 372.427 282.248 386.262 274.194 400.448C266.139 414.458 258.61 428.468 251.432 442.478C241.977 419.011 233.923 395.544 227.269 372.778C250.206 367.349 274.369 362.62 299.407 358.943ZM140.949 578.201C78.9664 551.757 38.8704 517.082 38.8704 489.587C38.8704 462.092 78.9664 427.242 140.949 400.973C156.007 394.493 172.465 388.714 189.449 383.285C199.429 417.61 212.561 453.336 228.845 489.937C212.736 526.363 199.78 561.914 189.975 596.064C172.64 590.635 156.182 584.681 140.949 578.201ZM235.148 828.457C211.336 814.797 201.005 762.784 209.06 695.886C210.986 679.424 214.137 662.086 217.989 644.399C252.307 652.805 289.777 659.284 329.172 663.487C352.81 695.886 377.323 725.307 402.011 751.051C344.931 804.114 291.353 833.185 254.934 833.185C247.054 833.01 240.401 831.434 235.148 828.457ZM650.466 695.01C658.695 761.909 648.54 813.921 624.902 827.756C619.65 830.908 612.821 832.309 604.767 832.309C568.523 832.309 514.77 803.414 457.69 750.7C482.203 724.957 506.715 695.711 530.003 663.312C569.573 659.109 607.043 652.63 641.361 644.048C645.388 661.736 648.54 678.723 650.466 695.01ZM717.876 578.201C702.818 584.681 686.36 590.46 669.376 595.889C659.395 561.564 646.264 525.838 629.98 489.237C646.088 452.81 659.045 417.26 668.85 383.11C686.184 388.539 702.643 394.493 718.051 400.973C780.034 427.417 820.13 462.092 820.13 489.587C819.955 517.082 779.859 551.932 717.876 578.201Z" fill="white"/>
<path d="M429.325 569.62C473.518 569.62 509.342 533.788 509.342 489.587C509.342 445.387 473.518 409.555 429.325 409.555C385.133 409.555 349.309 445.387 349.309 489.587C349.309 533.788 385.133 569.62 429.325 569.62Z" fill="white"/>
</svg>
