<svg width="877" height="785" viewBox="0 0 877 785" fill="none" xmlns="http://www.w3.org/2000/svg">
<path d="M834.305 592.354C788.399 616.334 550.65 713.627 499.948 740.348C449.247 767.069 421.155 766.384 381.416 747.199C341.677 728.015 88.8547 626.612 42.9492 604.687C20.3391 593.724 8.69141 584.817 8.69141 575.91V488.895C8.69141 488.895 337.566 416.954 391.009 398.455C444.451 379.27 462.265 378.585 507.485 395.029C552.705 411.473 823.342 460.119 867.877 476.563V562.207C867.877 571.114 857.6 580.706 834.305 592.354Z" fill="#A1A1A1"/>
<path d="M834.304 506.025C788.398 530.005 550.649 627.297 499.948 654.018C449.246 680.739 421.155 680.054 381.416 660.87C341.676 641.685 88.8538 539.597 42.9483 517.672C-2.27202 495.747 -3.64233 480.674 40.8928 463.545C85.428 445.731 336.88 347.068 390.323 328.569C443.765 309.385 461.579 308.7 506.799 325.143C552.019 341.587 788.398 435.453 832.934 451.897C878.839 468.341 880.209 482.044 834.304 506.025Z" fill="white"/>
<path d="M834.305 451.212C788.399 475.193 550.65 572.485 499.948 599.206C449.247 625.242 421.155 625.242 381.416 606.057C341.677 586.873 88.8547 484.785 42.9492 462.86C20.3391 451.897 8.69141 442.99 8.69141 434.083V347.068C8.69141 347.068 337.566 275.127 391.009 256.628C444.451 237.443 462.265 236.758 507.485 253.202C552.705 269.646 823.342 318.292 867.877 334.736V420.38C867.877 429.287 857.6 438.879 834.305 451.212Z" fill="#A1A1A1"/>
<path d="M834.306 364.197C788.401 388.178 550.652 485.47 499.95 512.191C449.248 538.227 421.157 538.227 381.418 519.043C341.679 499.858 88.8562 397.77 42.9508 375.845C-2.95472 353.92 -3.63988 338.847 40.8953 321.718C85.4304 303.904 336.883 205.241 390.325 186.742C443.767 167.558 461.581 166.872 506.802 183.316C552.022 199.76 788.401 293.626 832.936 310.07C878.841 326.514 880.212 340.217 834.306 364.197Z" fill="white"/>
<path d="M834.306 303.903C788.401 327.883 550.652 425.176 499.95 451.897C449.248 477.933 421.157 477.933 381.418 458.748C341.679 440.249 88.8563 338.161 42.9508 316.236C20.3406 305.273 8.00781 296.366 8.00781 287.459V200.444C8.00781 200.444 336.883 128.503 390.325 110.004C443.767 90.8192 461.581 90.1341 506.802 106.578C552.022 123.022 822.659 171.668 867.194 188.111V273.756C867.879 282.663 857.602 291.57 834.306 303.903Z" fill="#A1A1A1"/>
<path d="M834.306 216.888C788.401 240.869 550.652 338.161 499.95 364.882C449.248 390.918 421.157 390.918 381.418 371.734C341.679 352.549 88.8562 251.146 42.9508 229.221C-2.95472 207.296 -3.63988 192.223 40.8953 175.094C85.4304 157.28 336.883 58.6172 390.325 40.1179C443.767 20.9336 461.581 20.2484 506.802 36.6922C552.022 53.1359 788.401 147.002 832.936 163.446C878.841 179.89 880.212 193.593 834.306 216.888Z" fill="white"/>
<path d="M550.652 133.299L476.655 141.521L459.526 181.26L432.805 136.725L347.16 129.188L410.88 105.893L391.695 70.2646L451.989 93.56L508.172 75.0607L493.098 112.059L550.652 133.299ZM455.415 327.883L316.328 270.33L515.709 240.183L455.415 327.883Z" fill="#A4A4A4"/>
<path d="M262.887 238.128C321.539 238.128 369.086 219.723 369.086 197.019C369.086 174.314 321.539 155.909 262.887 155.909C204.235 155.909 156.688 174.314 156.688 197.019C156.688 219.723 204.235 238.128 262.887 238.128Z" fill="#A4A4A4"/>
<path d="M639.035 144.262L756.882 190.852L639.035 237.443V144.262Z" fill="#868686"/>
<path d="M508.855 196.334L639.035 144.262V237.443L626.017 242.924L508.855 196.334Z" fill="#B8B8B8"/>
</svg>
