<svg width="4081" height="4081" viewBox="0 0 4081 4081" fill="none" xmlns="http://www.w3.org/2000/svg">
<g clip-path="url(#clip0_4_355)">
<rect width="4081" height="4081" rx="999" fill="black"/>
<path d="M4081 4081H0V0H4081V4081ZM3241.99 1961.29C3169.94 1889.24 3053.12 1889.24 2981.07 1961.29L1961.29 2981.07C1889.24 3053.12 1889.24 3169.94 1961.29 3241.99C2033.35 3314.04 2150.16 3314.04 2222.22 3241.99L3241.99 2222.22C3314.04 2150.16 3314.04 2033.35 3241.99 1961.29ZM3038.04 839.539C2965.99 767.487 2849.17 767.487 2777.11 839.539L839.539 2777.11C767.487 2849.17 767.487 2965.99 839.539 3038.04C911.591 3110.09 1028.41 3110.09 1100.46 3038.04L3038.04 1100.46C3110.09 1028.41 3110.09 911.591 3038.04 839.539Z" fill="white"/>
</g>
<defs>
<clipPath id="clip0_4_355">
<rect width="4081" height="4081" rx="999" fill="white"/>
</clipPath>
</defs>
</svg>
