<svg width="891" height="891" viewBox="0 0 891 891" fill="none" xmlns="http://www.w3.org/2000/svg">
<path d="M335.68 25.6934C447.984 -3.10736 572.104 13.6754 671.147 74.8027C795.887 149.4 877.323 290.508 879.395 435.762C883.954 582.463 807.492 727.926 684.617 807.702C547.859 899.701 358.678 903.227 219.018 815.784C76.6664 730.826 -6.42677 559.465 14.9189 394.939C32.1126 221.09 166.39 67.7548 335.68 25.6934ZM811.945 396.606C789.983 169.088 529.727 12.2303 317.544 97.1885C166.283 150.234 60.6055 309.372 75.3174 469.752C80.9105 667.839 271.543 835.062 468.806 815.377C676.224 809.366 846.137 601.328 811.945 396.606Z" fill="white"/>
<path d="M339.822 423.539C434.932 345.834 527.969 265.435 625.15 190.01C574.175 268.338 521.753 345.625 470.778 423.949C427.056 424.158 383.338 424.162 339.822 423.539ZM420.22 466.843C464.147 466.843 507.869 466.843 551.591 467.466C455.86 544.753 363.238 625.771 265.848 700.991C316.823 622.663 369.245 545.171 420.22 466.843Z" fill="white"/>
</svg>
