<svg width="885" height="531" viewBox="0 0 885 531" fill="none" xmlns="http://www.w3.org/2000/svg">
<g clip-path="url(#clip0_2003_168)">
<path d="M442.149 0C324.192 0 250.473 59.0012 220.981 176.993C265.219 117.991 316.825 95.8742 375.798 110.619C409.449 119.032 433.498 143.463 460.125 170.495C503.489 214.53 553.679 265.494 663.317 265.494C781.263 265.494 854.993 206.493 884.474 88.4908C840.247 147.492 788.641 169.62 729.657 154.875C696.017 146.463 671.968 122.032 645.341 94.9997C601.977 50.9647 551.776 0 442.149 0ZM220.981 265.494C103.035 265.494 29.3052 324.496 -0.175781 442.498C44.0512 383.497 95.6567 361.369 154.641 376.125C188.281 384.549 212.33 408.968 238.957 435.989C282.321 480.024 332.522 531 442.149 531C560.106 531 633.825 471.999 663.317 353.996C619.079 412.998 567.474 435.126 508.501 420.37C474.849 411.968 450.8 387.526 424.173 360.505C380.809 316.47 330.619 265.494 220.981 265.494Z" fill="white"/>
</g>
<defs>
<clipPath id="clip0_2003_168">
<rect width="885" height="531" fill="white"/>
</clipPath>
</defs>
</svg>
