<svg width="889" height="889" viewBox="0 0 889 889" fill="none" xmlns="http://www.w3.org/2000/svg">
<path d="M736.75 27C805.924 27 862 83.0763 862 152.25V736.75C862 805.924 805.924 862 736.75 862H152.25C83.0763 862 27 805.924 27 736.75V152.25C27 83.0763 83.0763 27 152.25 27H736.75ZM685.378 414.231C665.808 414.231 647.868 416.352 629.929 420.429C611.989 424.506 597.311 431.029 584.265 439.999C571.055 448.806 561.433 459.569 553.278 474.247C545.613 487.946 541.862 503.603 541.862 523.173C541.862 547.636 548.875 568.837 563.063 585.146C577.089 603.085 598.943 616.132 626.667 629.179C637.92 633.745 647.868 638.312 657.653 642.715C667.438 647.118 675.593 651.685 682.116 656.414C689.129 661.144 694.674 666.362 698.425 671.907C702.502 677.452 704.622 683.976 704.622 691.478C704.622 696.696 703.35 701.589 700.871 706.155C698.392 710.722 694.511 714.636 689.292 717.897C684.073 721.159 677.713 723.769 669.722 725.726C662.057 727.52 653.413 728.498 641.997 728.498C624.058 728.498 606.118 725.399 589.81 719.202C571.87 713.005 555.562 703.709 543.982 694.021V772.303C557.192 779.152 573.338 784.208 591.277 787.633C609.217 791.058 628.787 792.688 648.357 792.688C667.928 792.688 685.867 790.895 703.807 787.144C721.746 783.393 736.424 777.195 749.471 769.204C762.681 760.561 773.934 749.634 780.457 734.956C786.98 720.278 792.036 703.97 792.036 682.769C792.036 667.928 789.753 655.044 785.35 643.628C780.946 632.212 774.586 622.427 765.779 614.272C757.462 605.629 747.84 597.964 736.424 591.44C725.008 584.917 711.961 578.067 697.283 571.87C686.52 567.467 677.713 563.227 667.928 558.986C659.447 554.746 652.108 550.506 646.727 546.266C640.692 541.862 636.126 537.296 632.864 532.566C629.603 527.674 627.972 522.292 627.972 516.258C627.972 510.713 629.423 505.657 632.375 501.091C635.327 496.524 639.388 492.773 644.606 489.512C649.825 486.25 656.349 483.804 664.177 482.01C671.842 480.216 680.322 479.4 690.271 479.4C697.12 479.4 704.296 479.906 711.472 480.934C718.974 481.961 726.639 483.543 734.304 485.663C741.969 487.783 749.471 490.393 757.136 493.654C764.312 496.916 770.998 500.667 776.706 504.907V428.257C764.312 423.527 750.612 419.939 735.935 417.656C721.257 415.373 704.948 414.231 685.378 414.231ZM219.441 490.164H323.816V788.611H406.99V490.164H511.365V423.299H219.441V490.164Z" fill="#EDEDED"/>
</svg>
