<svg width="2500" height="2432" viewBox="0 0 2500 2432" fill="none" xmlns="http://www.w3.org/2000/svg">
<path d="M1387.47 1866.26C1387.47 2176.87 1135.69 2428.69 825.088 2428.69C514.443 2428.69 262.656 2176.87 262.656 1866.26C262.656 1555.66 514.434 1303.84 825.088 1303.84C1135.69 1303.84 1387.47 1555.66 1387.47 1866.26Z" fill="#E0E0E0"/>
<path d="M2499.8 1078.88C2499.8 1389.45 2248.03 1641.3 1937.42 1641.3C1626.78 1641.3 1375 1389.45 1375 1078.88C1375 768.266 1626.77 516.41 1937.42 516.41C2248.03 516.41 2499.8 768.266 2499.8 1078.88Z" fill="#EEEEEE"/>
<path d="M1125 1066.39C1125 1376.97 873.232 1628.82 562.578 1628.82C252.012 1628.82 0.195312 1376.97 0.195312 1066.4C0.195312 755.795 252.012 503.93 562.578 503.93C873.223 503.93 1125 755.775 1125 1066.39Z" fill="#787878"/>
<path d="M2249.86 1866.26C2249.86 2176.87 1998.09 2428.69 1687.39 2428.69C1376.83 2428.69 1125.01 2176.87 1125.01 1866.26C1125.01 1555.66 1376.83 1303.84 1687.39 1303.84C1998.09 1303.84 2249.86 1555.66 2249.86 1866.26Z" fill="#9E9E9E"/>
<path d="M1812.42 566.43C1812.42 877.035 1560.61 1128.86 1250 1128.86C939.395 1128.86 687.578 877.035 687.578 566.43C687.578 255.824 939.395 4.00781 1250 4.00781C1560.61 4.00781 1812.42 255.824 1812.42 566.43Z" fill="#D5D5D5"/>
<path d="M1374.99 1078.88C1374.99 1090.71 1376.02 1102.29 1376.76 1113.96C1626.23 1056.41 1812.4 833.363 1812.4 566.42C1812.4 554.584 1811.38 542.963 1810.64 531.293C1561.17 588.891 1374.99 811.928 1374.99 1078.88Z" fill="#E4E4E4"/>
<path d="M1449.19 1357.37C1546.11 1526.8 1728.25 1641.29 1937.44 1641.29C2022.7 1641.29 2103.22 1621.76 2175.65 1587.78C2078.78 1418.34 1896.63 1303.85 1687.4 1303.85C1602.15 1303.85 1521.62 1323.39 1449.19 1357.37Z" fill="#DADADA"/>
<path d="M1125 1866.26C1125 2003.67 1174.39 2129.42 1256.27 2227.08C1338.07 2129.42 1387.46 2003.68 1387.46 1866.26C1387.46 1728.85 1338.07 1603.11 1256.27 1505.44C1174.39 1603.1 1125 1728.85 1125 1866.26Z" fill="#AEAEAE"/>
<path d="M339.912 1582.77C410.203 1613.19 485.988 1628.86 562.578 1628.81C769.707 1628.81 950.156 1516.56 1047.78 1349.88C977.489 1319.47 901.705 1303.81 825.117 1303.86C617.988 1303.86 437.5 1416.13 339.912 1582.77Z" fill="#8F8F8F"/>
<path d="M689.99 518.988C688.662 534.652 687.549 550.404 687.549 566.439C687.549 833.178 873.447 1056.01 1122.63 1113.81C1123.9 1098.15 1125.02 1082.4 1125.02 1066.4C1125.02 799.662 939.16 576.752 689.99 518.988Z" fill="#B5B5B5"/>
<path d="M742.48 1796.66H654.502C576.836 1796.66 513.682 1733.71 513.682 1656.25V859.906C513.682 782.436 576.836 719.438 654.502 719.438H1757.71C1835.39 719.438 1898.51 782.436 1898.51 859.906V1656.25C1898.51 1733.71 1835.39 1796.67 1757.71 1796.67H1381.89L627.832 2166.31L742.48 1796.66Z" fill="white"/>
</svg>
