<svg width="1632" height="1632" viewBox="0 0 1632 1632" fill="none" xmlns="http://www.w3.org/2000/svg">
<g clip-path="url(#clip0_7_88)">
<path d="M816 0C365.467 0 0 365.467 0 816C0 1266.53 365.467 1632 816 1632C1266.53 1632 1632 1266.53 1632 816C1632 365.467 1266.53 0 816 0Z" fill="#368FB9"/>
<path d="M1296.15 1109.63C1245.74 1121.61 1220.22 1132.63 1157.84 1173.28C1060.49 1236.29 953.996 1265.59 953.996 1265.59C953.996 1265.59 945.174 1278.82 919.654 1284.81C875.546 1295.52 709.511 1304.65 694.388 1304.97C653.745 1305.28 628.856 1294.57 621.925 1277.87C600.816 1227.47 652.17 1205.41 652.17 1205.41C652.17 1205.41 640.828 1198.48 634.212 1192.18C628.226 1186.19 621.925 1174.22 620.034 1178.63C612.158 1197.85 608.062 1244.79 586.953 1265.9C557.968 1295.2 503.148 1285.44 470.697 1268.42C435.095 1249.52 473.217 1205.1 473.217 1205.1C473.217 1205.1 453.999 1216.44 438.561 1193.12C424.698 1171.7 411.781 1135.15 415.247 1090.1C419.027 1038.75 476.368 988.967 476.368 988.967C476.368 988.967 466.286 913.038 499.367 835.219C529.298 764.331 609.952 707.305 609.952 707.305C609.952 707.305 542.215 632.321 567.42 564.899C583.803 520.791 590.419 521.106 595.775 519.215C614.678 511.969 632.952 504.093 646.499 489.285C714.237 416.192 800.562 430.054 800.562 430.054C800.562 430.054 841.52 305.606 879.327 329.866C890.984 337.427 932.887 430.684 932.887 430.684C932.887 430.684 977.625 404.534 982.666 414.301C1009.76 466.916 1012.91 567.419 1000.94 628.541C980.776 729.359 930.366 783.549 910.203 817.575C905.477 825.452 964.393 850.341 1001.57 953.365C1035.91 1047.57 1005.35 1126.65 1010.71 1135.47C1011.65 1137.04 1011.97 1137.67 1011.97 1137.67C1011.97 1137.67 1051.35 1140.82 1130.43 1091.99C1172.65 1065.84 1222.74 1036.54 1279.77 1035.91C1334.9 1034.97 1337.74 1099.55 1296.15 1109.63ZM1371.13 1063.32C1365.46 1018.58 1327.65 987.707 1279.14 988.337C1206.67 989.282 1145.87 1026.77 1105.54 1051.66C1089.79 1061.43 1076.24 1068.68 1064.58 1074.03C1067.1 1037.49 1064.9 989.597 1045.99 936.982C1022.99 873.971 992.118 835.219 970.064 812.849C995.583 775.673 1030.55 721.483 1046.94 637.677C1061.12 566.159 1056.7 454.944 1024.25 392.562C1017.64 379.96 1006.61 370.823 992.748 367.043C987.077 365.467 976.365 362.317 955.256 368.303C923.435 302.456 912.408 295.524 903.901 289.853C886.258 278.511 865.464 275.991 845.931 283.237C819.781 292.689 797.412 317.893 776.303 362.632C773.152 369.248 770.317 375.549 767.796 381.85C727.784 384.686 664.772 399.178 611.528 456.834C604.911 464.08 591.994 469.436 578.447 474.477H578.762C551.037 484.244 538.434 506.928 522.996 547.886C501.572 605.226 523.627 661.622 545.366 698.168C515.75 724.633 476.368 766.851 455.574 816.315C429.739 877.436 426.904 937.297 427.849 969.748C405.795 993.063 371.769 1036.86 367.988 1086C362.947 1154.69 387.837 1201.32 398.864 1218.33C402.014 1223.37 405.48 1227.47 409.261 1231.56C408 1240.07 407.685 1249.2 409.576 1258.66C413.671 1280.71 427.534 1298.67 448.643 1310.01C490.23 1332.06 548.201 1341.52 592.939 1319.15C609.007 1336.16 638.308 1352.54 691.552 1352.54H694.703C708.251 1352.54 880.272 1343.41 930.366 1331.12C952.735 1325.76 968.173 1316.31 978.255 1307.81C1010.39 1297.72 1099.24 1267.48 1183.04 1213.29C1242.27 1174.85 1262.75 1166.66 1306.86 1155.95C1349.71 1145.55 1376.49 1106.48 1371.13 1063.32Z" fill="white"/>
</g>
<defs>
<clipPath id="clip0_7_88">
<rect width="1632" height="1632" fill="white"/>
</clipPath>
</defs>
</svg>
