<svg width="1632" height="1632" viewBox="0 0 1632 1632" fill="none" xmlns="http://www.w3.org/2000/svg">
<g clip-path="url(#clip0_7_92)">
<path d="M816 0C1266.53 0 1632 365.467 1632 816C1632 1266.53 1266.53 1632 816 1632C365.467 1632 0 1266.53 0 816C0 365.467 365.467 0 816 0ZM903.901 289.854C886.258 278.511 865.464 275.991 845.931 283.237C819.781 292.689 797.412 317.894 776.303 362.632C773.152 369.248 770.317 375.549 767.797 381.851C727.785 384.686 664.772 399.178 611.527 456.834C604.911 464.08 591.994 469.437 578.446 474.478H578.762C551.037 484.244 538.434 506.928 522.996 547.886C501.572 605.226 523.626 661.621 545.365 698.168C515.75 724.633 476.368 766.851 455.574 816.315C429.74 877.436 426.903 937.297 427.849 969.748C405.795 993.062 371.769 1036.86 367.988 1086C362.947 1154.69 387.836 1201.32 398.863 1218.33C402.014 1223.37 405.48 1227.47 409.261 1231.56C408.001 1240.07 407.685 1249.2 409.575 1258.66C413.671 1280.71 427.534 1298.67 448.643 1310.01C490.23 1332.06 548.201 1341.52 592.939 1319.15C609.007 1336.16 638.308 1352.54 691.553 1352.54H694.703C708.251 1352.54 880.272 1343.41 930.366 1331.12C952.735 1325.76 968.173 1316.31 978.255 1307.81C1010.39 1297.72 1099.24 1267.48 1183.04 1213.29C1242.27 1174.85 1262.75 1166.66 1306.86 1155.95C1349.71 1145.55 1376.49 1106.48 1371.13 1063.32C1365.46 1018.58 1327.65 987.707 1279.14 988.337C1206.67 989.282 1145.87 1026.77 1105.54 1051.66C1089.79 1061.43 1076.24 1068.68 1064.58 1074.03C1067.1 1037.49 1064.9 989.597 1045.99 936.982C1022.99 873.971 992.118 835.219 970.063 812.85C995.583 775.673 1030.55 721.483 1046.94 637.678C1061.12 566.16 1056.7 454.944 1024.25 392.562C1017.64 379.96 1006.61 370.824 992.748 367.043C987.077 365.468 976.365 362.317 955.256 368.303C923.435 302.456 912.408 295.525 903.901 289.854ZM800.562 430.054C800.641 429.814 841.557 305.629 879.327 329.865C890.984 337.427 932.887 430.685 932.887 430.685C932.887 430.685 977.624 404.535 982.666 414.301C1009.76 466.915 1012.91 567.42 1000.94 628.541C980.776 729.359 930.367 783.549 910.203 817.575C905.477 825.452 964.393 850.341 1001.57 953.365C1035.91 1047.57 1005.35 1126.65 1010.71 1135.47C1011.64 1137.02 1011.96 1137.65 1011.97 1137.67C1011.97 1137.67 1051.35 1140.82 1130.43 1091.99C1172.65 1065.84 1222.74 1036.54 1279.77 1035.91C1334.9 1034.97 1337.74 1099.55 1296.15 1109.63C1245.74 1121.61 1220.22 1132.63 1157.84 1173.28C1060.59 1236.22 954.22 1265.53 953.996 1265.59C953.996 1265.59 945.174 1278.82 919.654 1284.81C875.546 1295.52 709.51 1304.65 694.388 1304.97C653.746 1305.28 628.856 1294.57 621.925 1277.88C600.827 1227.49 652.117 1205.43 652.17 1205.41C652.096 1205.37 640.806 1198.46 634.212 1192.18C628.226 1186.19 621.925 1174.22 620.034 1178.63C612.158 1197.85 608.062 1244.79 586.953 1265.9C557.968 1295.2 503.148 1285.44 470.697 1268.42C435.153 1249.55 473.094 1205.24 473.217 1205.1C473.111 1205.16 453.956 1216.37 438.561 1193.12C424.698 1171.7 411.781 1135.15 415.247 1090.1C419.028 1038.75 476.368 988.967 476.368 988.967C476.361 988.914 466.298 913.011 499.367 835.219C529.296 764.335 609.942 707.312 609.952 707.305C609.786 707.121 542.246 632.238 567.42 564.898C583.802 520.792 590.419 521.106 595.774 519.216C614.678 511.97 632.952 504.093 646.499 489.285C714.229 416.2 800.543 430.051 800.562 430.054Z" fill="#FDFDFD"/>
</g>
<defs>
<clipPath id="clip0_7_92">
<rect width="1632" height="1632" fill="white"/>
</clipPath>
</defs>
</svg>
